<svg xmlns="http://www.w3.org/2000/svg" xmlns:xlink="http://www.w3.org/1999/xlink" viewBox="0 0 102.3 224.83"><defs><style>.cls-1{isolation:isolate;}.cls-2{fill:#a6a8ab;}.cls-10,.cls-100,.cls-101,.cls-102,.cls-103,.cls-104,.cls-105,.cls-106,.cls-107,.cls-108,.cls-109,.cls-11,.cls-110,.cls-111,.cls-112,.cls-113,.cls-114,.cls-115,.cls-116,.cls-12,.cls-13,.cls-14,.cls-15,.cls-16,.cls-17,.cls-18,.cls-19,.cls-2,.cls-20,.cls-21,.cls-22,.cls-23,.cls-24,.cls-25,.cls-26,.cls-27,.cls-28,.cls-29,.cls-3,.cls-30,.cls-31,.cls-32,.cls-33,.cls-34,.cls-35,.cls-36,.cls-37,.cls-38,.cls-39,.cls-4,.cls-40,.cls-41,.cls-42,.cls-43,.cls-44,.cls-45,.cls-46,.cls-47,.cls-48,.cls-49,.cls-5,.cls-50,.cls-51,.cls-52,.cls-53,.cls-54,.cls-55,.cls-56,.cls-57,.cls-58,.cls-59,.cls-6,.cls-60,.cls-61,.cls-62,.cls-63,.cls-64,.cls-65,.cls-66,.cls-67,.cls-68,.cls-69,.cls-7,.cls-70,.cls-71,.cls-72,.cls-73,.cls-74,.cls-75,.cls-76,.cls-77,.cls-78,.cls-79,.cls-8,.cls-80,.cls-81,.cls-82,.cls-83,.cls-84,.cls-85,.cls-86,.cls-87,.cls-88,.cls-89,.cls-9,.cls-90,.cls-91,.cls-92,.cls-93,.cls-94,.cls-95,.cls-96,.cls-97,.cls-98,.cls-99{fill-rule:evenodd;}.cls-3,.cls-43{fill:#525252;}.cls-4{fill:url(#GradientFill_29);}.cls-5{fill:url(#GradientFill_29-2);}.cls-6{fill:#a7a9ac;}.cls-7{fill:#a8aaad;}.cls-8{fill:#a9abae;}.cls-9{fill:#aaacaf;}.cls-10{fill:#abadb0;}.cls-11{fill:#acaeb1;}.cls-12{fill:#adafb2;}.cls-13{fill:#aeb0b3;}.cls-14{fill:#afb1b4;}.cls-15{fill:#b0b2b5;}.cls-16{fill:#b1b3b5;}.cls-17{fill:#b2b4b6;}.cls-18{fill:#b3b5b7;}.cls-19{fill:#b4b6b8;}.cls-20{fill:#b5b7b9;}.cls-21{fill:#b6b8ba;}.cls-22{fill:#b7b9bb;}.cls-23{fill:#b8babc;}.cls-24{fill:#b9bbbd;}.cls-25{fill:#babcbe;}.cls-26{fill:#bbbdbf;}.cls-27{fill:#e6e7e8;}.cls-28{fill:#e3e4e5;}.cls-29{fill:#e0e1e2;}.cls-30{fill:#dddedf;}.cls-31{fill:#dadbdc;}.cls-32{fill:#d7d8d9;}.cls-33{fill:#d4d5d7;}.cls-34{fill:#d1d2d4;}.cls-35{fill:#cecfd1;}.cls-36{fill:#cbccce;}.cls-37{fill:#c8c9cb;}.cls-38{fill:#c4c6c8;}.cls-39{fill:#c1c3c5;}.cls-40{fill:#bec0c2;}.cls-41{fill:#b5b7ba;}.cls-42{fill:#b2b4b7;}.cls-43{mix-blend-mode:multiply;}.cls-44{fill:#a8a8a8;opacity:0.4;}.cls-45{fill:#f1f1f2;}.cls-46{fill:#f0f1f2;}.cls-47{fill:#f0f0f1;}.cls-48{fill:#eff0f1;}.cls-49{fill:#efeff0;}.cls-50{fill:#eeeff0;}.cls-51{fill:#eeeeef;}.cls-52{fill:#edeeef;}.cls-53{fill:#ededee;}.cls-54{fill:#ecedee;}.cls-55{fill:#ececed;}.cls-56{fill:#ebeced;}.cls-57{fill:#ebebec;}.cls-58{fill:#eaebec;}.cls-59{fill:#eaeaeb;}.cls-60{fill:#e9eaeb;}.cls-61{fill:#e9e9ea;}.cls-62{fill:#e8e9ea;}.cls-63{fill:#e8e8e9;}.cls-64{fill:#e7e8e9;}.cls-65{fill:#e7e7e8;}.cls-66{fill:url(#GradientFill_24);}.cls-67{fill:url(#GradientFill_24-2);}.cls-68{fill:url(#linear-gradient);}.cls-69{fill:url(#linear-gradient-2);}.cls-70{fill:url(#linear-gradient-3);}.cls-71{fill:url(#linear-gradient-4);}.cls-72{fill:url(#linear-gradient-5);}.cls-73{fill:url(#linear-gradient-6);}.cls-74{fill:url(#linear-gradient-7);}.cls-75{fill:url(#linear-gradient-8);}.cls-76{fill:url(#linear-gradient-9);}.cls-77{fill:url(#linear-gradient-10);}.cls-78{fill:url(#linear-gradient-11);}.cls-79{fill:url(#linear-gradient-12);}.cls-80{fill:url(#linear-gradient-13);}.cls-81{fill:url(#linear-gradient-14);}.cls-82{fill:url(#linear-gradient-15);}.cls-83{fill:url(#linear-gradient-16);}.cls-84{fill:url(#linear-gradient-17);}.cls-85{fill:url(#linear-gradient-18);}.cls-86{fill:url(#linear-gradient-19);}.cls-87{fill:url(#linear-gradient-20);}.cls-88{fill:url(#GradientFill_11);}.cls-89{fill:url(#linear-gradient-21);}.cls-90{fill:url(#linear-gradient-22);}.cls-91{fill:url(#linear-gradient-23);}.cls-92{fill:url(#linear-gradient-24);}.cls-93{fill:url(#linear-gradient-25);}.cls-94{fill:url(#linear-gradient-26);}.cls-95{fill:url(#linear-gradient-27);}.cls-96{fill:url(#linear-gradient-28);}.cls-97{fill:url(#linear-gradient-29);}.cls-98{fill:url(#linear-gradient-30);}.cls-99{fill:url(#linear-gradient-31);}.cls-100{fill:url(#linear-gradient-32);}.cls-101{fill:url(#linear-gradient-33);}.cls-102{fill:url(#linear-gradient-34);}.cls-103{fill:url(#linear-gradient-35);}.cls-104{fill:url(#linear-gradient-36);}.cls-105{fill:url(#linear-gradient-37);}.cls-106{fill:url(#linear-gradient-38);}.cls-107{fill:url(#linear-gradient-39);}.cls-108{fill:url(#linear-gradient-40);}.cls-109{fill:url(#GradientFill_11-2);}.cls-110{fill:#231f20;}.cls-111{fill:#808184;}.cls-112{fill:url(#GradientFill_30);}.cls-113{fill:url(#GradientFill_30-2);}.cls-114{fill:#fff;}.cls-115{fill:url(#GradientFill_30-3);}.cls-116{fill:url(#GradientFill_30-4);}</style><linearGradient id="GradientFill_29" x1="276.12" y1="305.34" x2="277.88" y2="303.31" gradientTransform="translate(638 341.83) rotate(180)" gradientUnits="userSpaceOnUse"><stop offset="0" stop-color="#ee3e25"/><stop offset="1" stop-color="#6f2e48"/></linearGradient><linearGradient id="GradientFill_29-2" x1="337.22" y1="305.7" x2="335.58" y2="303.67" xlink:href="#GradientFill_29"/><linearGradient id="GradientFill_24" x1="260.38" y1="174.63" x2="264.71" y2="182.44" gradientTransform="translate(638 341.83) rotate(180)" gradientUnits="userSpaceOnUse"><stop offset="0" stop-color="#34383a"/><stop offset="1" stop-color="#131618"/></linearGradient><linearGradient id="GradientFill_24-2" x1="352.68" y1="173.81" x2="348.21" y2="181.53" xlink:href="#GradientFill_24"/><linearGradient id="linear-gradient" x1="304.51" y1="181.26" x2="304.51" y2="252.87" gradientTransform="translate(30.38 16.28) scale(0.9)" gradientUnits="userSpaceOnUse"><stop offset="0" stop-color="#e6e7e8"/><stop offset="0.24" stop-color="#e5e6e7"/><stop offset="1" stop-color="#e6e7e8"/></linearGradient><linearGradient id="linear-gradient-2" x1="302.81" y1="182.48" x2="302.81" y2="262.51" gradientTransform="translate(60.76 32.56) scale(0.81)" gradientUnits="userSpaceOnUse"><stop offset="0" stop-color="#e6e7e8"/><stop offset="0.24" stop-color="#e4e5e6"/><stop offset="1" stop-color="#e6e7e8"/></linearGradient><linearGradient id="linear-gradient-3" x1="300.65" y1="184.02" x2="300.65" y2="274.73" gradientTransform="translate(91.14 48.83) scale(0.71)" gradientUnits="userSpaceOnUse"><stop offset="0" stop-color="#e6e7e8"/><stop offset="0.24" stop-color="#e3e4e5"/><stop offset="1" stop-color="#e6e7e8"/></linearGradient><linearGradient id="linear-gradient-4" x1="297.82" y1="186.04" x2="297.82" y2="290.7" gradientTransform="translate(121.52 65.11) scale(0.62)" gradientUnits="userSpaceOnUse"><stop offset="0" stop-color="#e6e7e8"/><stop offset="0.24" stop-color="#e2e3e4"/><stop offset="1" stop-color="#e6e7e8"/></linearGradient><linearGradient id="linear-gradient-5" x1="293.97" y1="188.79" x2="293.97" y2="312.48" gradientTransform="translate(151.9 81.39) scale(0.52)" gradientUnits="userSpaceOnUse"><stop offset="0" stop-color="#e6e7e8"/><stop offset="0.24" stop-color="#e1e2e3"/><stop offset="1" stop-color="#e6e7e8"/></linearGradient><linearGradient id="linear-gradient-6" x1="288.41" y1="192.76" x2="288.41" y2="343.93" gradientTransform="translate(182.29 97.67) scale(0.43)" gradientUnits="userSpaceOnUse"><stop offset="0" stop-color="#e6e7e8"/><stop offset="0.24" stop-color="#e0e1e2"/><stop offset="1" stop-color="#e6e7e8"/></linearGradient><linearGradient id="linear-gradient-7" x1="279.67" y1="199" x2="279.67" y2="393.37" gradientTransform="translate(212.67 113.94) scale(0.33)" gradientUnits="userSpaceOnUse"><stop offset="0" stop-color="#e6e7e8"/><stop offset="0.24" stop-color="#dfe0e1"/><stop offset="1" stop-color="#e6e7e8"/></linearGradient><linearGradient id="linear-gradient-8" x1="263.94" y1="210.23" x2="263.94" y2="482.35" gradientTransform="translate(243.05 130.22) scale(0.24)" gradientUnits="userSpaceOnUse"><stop offset="0" stop-color="#e6e7e8"/><stop offset="0.24" stop-color="#dedfe0"/><stop offset="1" stop-color="#e6e7e8"/></linearGradient><linearGradient id="linear-gradient-9" x1="227.23" y1="236.44" x2="227.23" y2="689.97" gradientTransform="translate(273.43 146.5) scale(0.14)" gradientUnits="userSpaceOnUse"><stop offset="0" stop-color="#e6e7e8"/><stop offset="0.24" stop-color="#dddedf"/><stop offset="1" stop-color="#e6e7e8"/></linearGradient><linearGradient id="linear-gradient-10" x1="43.7" y1="367.49" x2="43.7" y2="1728.07" gradientTransform="translate(303.81 162.78) scale(0.05)" gradientUnits="userSpaceOnUse"><stop offset="0" stop-color="#e6e7e8"/><stop offset="0.24" stop-color="#dcddde"/><stop offset="1" stop-color="#e6e7e8"/></linearGradient><linearGradient id="linear-gradient-11" x1="594.3" y1="-1384.75" x2="594.3" y2="-24.17" gradientTransform="translate(334.19 179.06) rotate(180) scale(0.05)" gradientUnits="userSpaceOnUse"><stop offset="0" stop-color="#e6e7e8"/><stop offset="0.24" stop-color="#dadcdd"/><stop offset="1" stop-color="#e6e7e8"/></linearGradient><linearGradient id="linear-gradient-12" x1="410.77" y1="-347.64" x2="410.77" y2="105.89" gradientTransform="translate(364.57 195.33) rotate(180) scale(0.14)" gradientUnits="userSpaceOnUse"><stop offset="0" stop-color="#e6e7e8"/><stop offset="0.24" stop-color="#d9dbdc"/><stop offset="1" stop-color="#e6e7e8"/></linearGradient><linearGradient id="linear-gradient-13" x1="374.06" y1="-140.22" x2="374.06" y2="131.9" gradientTransform="translate(394.95 211.61) rotate(180) scale(0.24)" gradientUnits="userSpaceOnUse"><stop offset="0" stop-color="#e6e7e8"/><stop offset="0.24" stop-color="#d8dadb"/><stop offset="1" stop-color="#e6e7e8"/></linearGradient><linearGradient id="linear-gradient-14" x1="358.33" y1="-51.32" x2="358.33" y2="143.05" gradientTransform="translate(425.33 227.89) rotate(180) scale(0.33)" gradientUnits="userSpaceOnUse"><stop offset="0" stop-color="#e6e7e8"/><stop offset="0.24" stop-color="#d7d9da"/><stop offset="1" stop-color="#e6e7e8"/></linearGradient><linearGradient id="linear-gradient-15" x1="349.59" y1="-1.93" x2="349.59" y2="149.24" gradientTransform="translate(455.71 244.17) rotate(180) scale(0.43)" gradientUnits="userSpaceOnUse"><stop offset="0" stop-color="#e6e7e8"/><stop offset="0.24" stop-color="#d6d8d9"/><stop offset="1" stop-color="#e6e7e8"/></linearGradient><linearGradient id="linear-gradient-16" x1="344.03" y1="29.49" x2="344.03" y2="153.18" gradientTransform="translate(486.09 260.45) rotate(180) scale(0.52)" gradientUnits="userSpaceOnUse"><stop offset="0" stop-color="#e6e7e8"/><stop offset="0.24" stop-color="#d5d7d8"/><stop offset="1" stop-color="#e6e7e8"/></linearGradient><linearGradient id="linear-gradient-17" x1="340.18" y1="51.25" x2="340.18" y2="155.91" gradientTransform="translate(516.48 276.72) rotate(180) scale(0.62)" gradientUnits="userSpaceOnUse"><stop offset="0" stop-color="#e6e7e8"/><stop offset="0.24" stop-color="#d4d6d7"/><stop offset="1" stop-color="#e6e7e8"/></linearGradient><linearGradient id="linear-gradient-18" x1="337.35" y1="67.21" x2="337.35" y2="157.91" gradientTransform="translate(546.86 293) rotate(180) scale(0.71)" gradientUnits="userSpaceOnUse"><stop offset="0" stop-color="#e6e7e8"/><stop offset="0.24" stop-color="#d3d5d6"/><stop offset="1" stop-color="#e6e7e8"/></linearGradient><linearGradient id="linear-gradient-19" x1="335.19" y1="79.41" x2="335.19" y2="159.44" gradientTransform="translate(577.24 309.28) rotate(180) scale(0.81)" gradientUnits="userSpaceOnUse"><stop offset="0" stop-color="#e6e7e8"/><stop offset="0.24" stop-color="#d2d4d5"/><stop offset="1" stop-color="#e6e7e8"/></linearGradient><linearGradient id="linear-gradient-20" x1="333.49" y1="89.04" x2="333.49" y2="160.65" gradientTransform="translate(607.62 325.56) rotate(180) scale(0.9)" gradientUnits="userSpaceOnUse"><stop offset="0" stop-color="#e6e7e8"/><stop offset="0.24" stop-color="#d1d3d4"/><stop offset="1" stop-color="#e6e7e8"/></linearGradient><linearGradient id="GradientFill_11" x1="332.11" y1="96.84" x2="332.11" y2="161.63" gradientTransform="translate(638 341.83) rotate(180)" gradientUnits="userSpaceOnUse"><stop offset="0" stop-color="#e6e7e8"/><stop offset="0.24" stop-color="#d0d2d3"/><stop offset="1" stop-color="#e6e7e8"/></linearGradient><linearGradient id="linear-gradient-21" x1="361.02" y1="181.26" x2="361.02" y2="252.87" xlink:href="#linear-gradient"/><linearGradient id="linear-gradient-22" x1="365.96" y1="182.48" x2="365.96" y2="262.51" xlink:href="#linear-gradient-2"/><linearGradient id="linear-gradient-23" x1="372.22" y1="184.02" x2="372.22" y2="274.73" xlink:href="#linear-gradient-3"/><linearGradient id="linear-gradient-24" x1="380.41" y1="186.04" x2="380.41" y2="290.7" xlink:href="#linear-gradient-4"/><linearGradient id="linear-gradient-25" x1="391.58" y1="188.79" x2="391.58" y2="312.48" xlink:href="#linear-gradient-5"/><linearGradient id="linear-gradient-26" x1="407.71" y1="192.76" x2="407.71" y2="343.93" xlink:href="#linear-gradient-6"/><linearGradient id="linear-gradient-27" x1="433.05" y1="199" x2="433.05" y2="393.37" xlink:href="#linear-gradient-7"/><linearGradient id="linear-gradient-28" x1="478.67" y1="210.23" x2="478.67" y2="482.35" xlink:href="#linear-gradient-8"/><linearGradient id="linear-gradient-29" x1="585.12" y1="236.44" x2="585.12" y2="689.97" xlink:href="#linear-gradient-9"/><linearGradient id="linear-gradient-30" x1="1117.35" y1="367.49" x2="1117.35" y2="1728.07" xlink:href="#linear-gradient-10"/><linearGradient id="linear-gradient-31" x1="-479.35" y1="-1384.75" x2="-479.35" y2="-24.17" xlink:href="#linear-gradient-11"/><linearGradient id="linear-gradient-32" x1="52.88" y1="-347.64" x2="52.88" y2="105.89" xlink:href="#linear-gradient-12"/><linearGradient id="linear-gradient-33" x1="159.33" y1="-140.22" x2="159.33" y2="131.9" xlink:href="#linear-gradient-13"/><linearGradient id="linear-gradient-34" x1="204.95" y1="-51.32" x2="204.95" y2="143.05" xlink:href="#linear-gradient-14"/><linearGradient id="linear-gradient-35" x1="230.29" y1="-1.93" x2="230.29" y2="149.24" xlink:href="#linear-gradient-15"/><linearGradient id="linear-gradient-36" x1="246.42" y1="29.49" x2="246.42" y2="153.18" xlink:href="#linear-gradient-16"/><linearGradient id="linear-gradient-37" x1="257.59" y1="51.25" x2="257.59" y2="155.91" xlink:href="#linear-gradient-17"/><linearGradient id="linear-gradient-38" x1="265.78" y1="67.21" x2="265.78" y2="157.91" xlink:href="#linear-gradient-18"/><linearGradient id="linear-gradient-39" x1="272.04" y1="79.41" x2="272.04" y2="159.44" xlink:href="#linear-gradient-19"/><linearGradient id="linear-gradient-40" x1="276.98" y1="89.04" x2="276.98" y2="160.65" xlink:href="#linear-gradient-20"/><linearGradient id="GradientFill_11-2" x1="280.98" y1="96.84" x2="280.98" y2="161.63" xlink:href="#GradientFill_11"/><linearGradient id="GradientFill_30" x1="258.68" y1="105.74" x2="265.42" y2="105.86" gradientTransform="translate(638 341.83) rotate(180)" gradientUnits="userSpaceOnUse"><stop offset="0" stop-color="#929497"/><stop offset="1" stop-color="#e6e7e8"/></linearGradient><linearGradient id="GradientFill_30-2" x1="266.44" y1="103.1" x2="281.41" y2="108.85" xlink:href="#GradientFill_30"/><linearGradient id="GradientFill_30-3" x1="354.35" y1="106.01" x2="347.6" y2="106.01" xlink:href="#GradientFill_30"/><linearGradient id="GradientFill_30-4" x1="346.82" y1="103.19" x2="331.74" y2="108.68" xlink:href="#GradientFill_30"/></defs><title>car</title><g class="cls-1"><g id="Layer_1" data-name="Layer 1"><path class="cls-2" d="M331.45,249.17c4.74-.69,15.15-1.23,19.09-2.66,1.7-.62,2.39-1.81,7.37-2.78a15.61,15.61,0,0,0,11.8-10.52c1.76-5.78,4.94-19.83,3.81-27.61a102.22,102.22,0,0,1-.82-21.09c.41-5.46-1-91.8-1.12-95.41s.81-20.38.25-24-2.57-8-3.55-15.22-1-11.47-6.55-16.08-20.37-6.7-25.08-7.36a42.9,42.9,0,0,0-10.41,0c-4.72.65-19.59,2.74-25.08,7.36s-5.57,8.88-6.55,16.08-3,11.62-3.55,15.22.38,20.37.25,24-1.53,90-1.12,95.41a102.21,102.21,0,0,1-.82,21.09c-1.13,7.79,2.06,21.84,3.81,27.61A15.61,15.61,0,0,0,305,243.72c5,1,5.67,2.16,7.37,2.78C316.3,247.94,326.71,248.47,331.45,249.17Z" transform="translate(-280.34 -26.11)"/><path class="cls-3" d="M373.4,129.93h1.34a1,1,0,0,1,.75.37h0a1.37,1.37,0,0,1,.31.89v6.59a1.43,1.43,0,0,1-.14.63h0a1.18,1.18,0,0,1-.39.46L373.79,140l0-1.68.83-.7a.39.39,0,0,0,.13-.15h0a.48.48,0,0,0,0-.21v-5.33a.46.46,0,0,0-.1-.3.33.33,0,0,0-.25-.12h-1.08Z" transform="translate(-280.34 -26.11)"/><path class="cls-3" d="M289.5,129.93h-1.34a1,1,0,0,0-.75.37h0a1.38,1.38,0,0,0-.31.89v6.59a1.43,1.43,0,0,0,.14.63h0a1.18,1.18,0,0,0,.39.46l1.49,1.16,0-1.68-.83-.7a.39.39,0,0,1-.13-.15h0a.48.48,0,0,1,0-.21v-5.33a.46.46,0,0,1,.1-.3.33.33,0,0,1,.25-.12h1.08Z" transform="translate(-280.34 -26.11)"/><path class="cls-3" d="M372.65,85.26h1.07a1,1,0,0,1,.75.37h0a1.38,1.38,0,0,1,.31.89v6.59a1.43,1.43,0,0,1-.14.63h0a1.17,1.17,0,0,1-.39.46l-1.26,1,0-1.71.6-.5a.39.39,0,0,0,.13-.15h0a.48.48,0,0,0,0-.21V87.27a.46.46,0,0,0-.1-.3.33.33,0,0,0-.25-.12h-.82Z" transform="translate(-280.34 -26.11)"/><path class="cls-3" d="M290.26,85.26h-1.07a1,1,0,0,0-.75.37h0a1.37,1.37,0,0,0-.31.89v6.59a1.43,1.43,0,0,0,.14.63h0a1.17,1.17,0,0,0,.39.46l1.26,1,0-1.71-.6-.5a.39.39,0,0,1-.13-.15h0a.48.48,0,0,1,0-.21V87.27a.46.46,0,0,1,.1-.3.33.33,0,0,1,.25-.12h.82Z" transform="translate(-280.34 -26.11)"/><path class="cls-4" d="M353.53,29.23v5.68a39.31,39.31,0,0,0,2.54,3.53l12.75,6.94" transform="translate(-280.34 -26.11)"/><path class="cls-5" d="M309.37,29.23v5.68a39.35,39.35,0,0,1-2.54,3.53l-12.75,6.94" transform="translate(-280.34 -26.11)"/><path class="cls-2" d="M331.45,250c4.92-.7,15.7-1.23,19.78-2.67,1.76-.62,2.48-1.82,7.64-2.79A16,16,0,0,0,371.11,234c1.82-5.8,5.12-19.9,4-27.71a99.38,99.38,0,0,1-.85-21.16c.42-5.48-1-92.14-1.16-95.76s.84-20.45.26-24.06-2.66-8-3.68-15.27-1.09-11.51-6.79-16.14-22.16-6.37-26-6.88a45.92,45.92,0,0,0-10.79,0c-3.84.51-20.3,2.25-26,6.88s-5.77,8.92-6.79,16.14-3.1,11.66-3.68,15.27.4,20.44.26,24.06-1.59,90.28-1.16,95.76a99.38,99.38,0,0,1-.85,21.16c-1.17,7.81,2.13,21.92,4,27.71A16,16,0,0,0,304,244.52c5.16,1,5.88,2.17,7.64,2.79C315.75,248.75,326.54,249.29,331.45,250Z" transform="translate(-280.34 -26.11)"/><path class="cls-6" d="M331.45,250c4.89-.7,15.72-1.26,19.78-2.7,1.75-.62,2.47-1.76,7.6-2.74A15.85,15.85,0,0,0,370.93,234c1.81-5.8,5.1-19.9,3.94-27.71a104.59,104.59,0,0,1-.76-21.75c.42-5.48-1.11-91.55-1.25-95.17s.84-20,.26-23.63-2.65-8.49-3.66-15.71-1.08-11.51-6.75-16.14S340.65,27.47,336.82,27a45.5,45.5,0,0,0-10.74,0c-3.82.51-20.21,2.25-25.88,6.88s-5.75,8.92-6.75,16.14-3.08,12.1-3.66,15.71.39,20,.26,23.63-1.66,89.73-1.24,95.21a104.25,104.25,0,0,1-.76,21.71c-1.17,7.81,2.12,21.92,3.94,27.71a15.85,15.85,0,0,0,12.09,10.56c5.13,1,5.85,2.12,7.6,2.74C315.73,248.69,326.56,249.25,331.45,250Z" transform="translate(-280.34 -26.11)"/><path class="cls-7" d="M331.45,249.92c4.87-.7,15.74-1.28,19.78-2.72,1.75-.62,2.46-1.71,7.57-2.68A15.68,15.68,0,0,0,370.75,234c1.8-5.8,5.08-19.9,3.92-27.71a110,110,0,0,1-.66-22.34c.42-5.48-1.2-91-1.33-94.58s.83-19.58.26-23.19-2.64-8.92-3.64-16.15-1.08-11.51-6.72-16.14-22-6.37-25.76-6.89a45.09,45.09,0,0,0-10.69,0c-3.81.51-20.11,2.26-25.76,6.89s-5.72,8.92-6.72,16.14S290.56,62.52,290,66.13s.39,19.57.26,23.19-1.74,89.18-1.32,94.66a109.26,109.26,0,0,1-.67,22.26c-1.16,7.81,2.11,21.92,3.92,27.71a15.68,15.68,0,0,0,11.94,10.56c5.11,1,5.82,2.06,7.57,2.68C315.71,248.64,326.58,249.22,331.45,249.92Z" transform="translate(-280.34 -26.11)"/><path class="cls-8" d="M331.45,249.89c4.85-.7,15.76-1.3,19.78-2.74,1.74-.62,2.45-1.65,7.53-2.63A15.51,15.51,0,0,0,370.56,234c1.8-5.8,5.05-19.9,3.9-27.71a115.5,115.5,0,0,1-.57-22.92c.42-5.48-1.28-90.37-1.41-94s.83-19.14.26-22.75-2.63-9.36-3.63-16.58S368,38.48,362.42,33.84,340.56,27.47,336.77,27a44.67,44.67,0,0,0-10.64,0c-3.79.51-20,2.26-25.64,6.89S294.8,42.76,293.8,50s-3.05,13-3.63,16.58.39,19.13.25,22.75S288.61,178,289,183.43a114.43,114.43,0,0,1-.58,22.81c-1.15,7.81,2.1,21.92,3.9,27.71a15.51,15.51,0,0,0,11.79,10.56c5.09,1,5.79,2,7.53,2.63C315.69,248.58,326.6,249.19,331.45,249.89Z" transform="translate(-280.34 -26.11)"/><path class="cls-9" d="M331.45,249.85c4.83-.7,15.78-1.33,19.78-2.77,1.73-.62,2.44-1.59,7.5-2.57A15.34,15.34,0,0,0,370.38,234c1.79-5.8,5-19.9,3.88-27.71s-.89-18-.48-23.51-1.36-89.79-1.5-93.41.82-18.71.25-22.32-2.62-9.79-3.61-17-1.07-11.51-6.66-16.14-21.75-6.38-25.52-6.9a44.26,44.26,0,0,0-10.59,0c-3.77.51-19.93,2.26-25.52,6.9S295,42.76,294,50s-3,13.41-3.61,17,.39,18.7.25,22.32-1.9,88.08-1.49,93.56a119.75,119.75,0,0,1-.49,23.36c-1.15,7.81,2.09,21.92,3.88,27.71a15.34,15.34,0,0,0,11.65,10.56c5.06,1,5.77,1.95,7.5,2.57C315.68,248.53,326.63,249.16,331.45,249.85Z" transform="translate(-280.34 -26.11)"/><path class="cls-10" d="M331.45,249.82c4.8-.7,15.8-1.35,19.78-2.79,1.72-.62,2.42-1.54,7.46-2.51A15.18,15.18,0,0,0,370.2,234c1.78-5.8,5-19.9,3.86-27.71s-.8-18.62-.39-24.1-1.45-89.2-1.58-92.82.82-18.27.25-21.88-2.6-10.23-3.59-17.46-1.06-11.51-6.63-16.14-21.65-6.39-25.4-6.9a43.85,43.85,0,0,0-10.54,0c-3.75.51-19.84,2.27-25.4,6.9s-5.64,8.92-6.63,16.14-3,13.85-3.59,17.46.39,18.26.25,21.88-2,87.53-1.57,93,.74,16.09-.4,23.91,2.08,21.92,3.86,27.71a15.18,15.18,0,0,0,11.5,10.56c5,1,5.74,1.89,7.46,2.51C315.66,248.47,326.65,249.13,331.45,249.82Z" transform="translate(-280.34 -26.11)"/><path class="cls-11" d="M331.45,249.79c4.78-.7,15.81-1.38,19.78-2.82,1.71-.62,2.41-1.48,7.43-2.46A15,15,0,0,0,370,234c1.77-5.8,5-19.9,3.84-27.71s-.71-19.21-.29-24.69S372,92.94,371.91,89.32s.82-17.83.25-21.44S369.57,57.21,368.58,50s-1.06-11.51-6.6-16.14-21.55-6.39-25.28-6.9a43.44,43.44,0,0,0-10.49,0c-3.74.51-19.74,2.27-25.28,6.9s-5.61,8.92-6.6,16.14-3,14.28-3.58,17.89.38,17.82.25,21.44-2.06,87-1.65,92.46.83,16.64-.31,24.46,2.07,21.92,3.84,27.71a15,15,0,0,0,11.35,10.56c5,1,5.71,1.84,7.43,2.46C315.64,248.41,326.67,249.09,331.45,249.79Z" transform="translate(-280.34 -26.11)"/><path class="cls-12" d="M331.45,249.76c4.76-.7,15.83-1.4,19.78-2.84a27,27,0,0,1,7.39-2.4A14.86,14.86,0,0,0,369.84,234c1.76-5.8,5-19.9,3.83-27.71s-.61-19.8-.2-25.27-1.61-88-1.75-91.64.81-17.4.25-21-2.58-11.1-3.56-18.33-1.05-11.51-6.57-16.14-21.45-6.39-25.16-6.91a43,43,0,0,0-10.45,0c-3.72.51-19.65,2.28-25.16,6.91S295.48,42.76,294.5,50s-3,14.72-3.56,18.33.38,17.39.25,21-2.13,86.44-1.73,91.91.91,17.19-.22,25,2.06,21.92,3.83,27.71a14.86,14.86,0,0,0,11.21,10.56,27,27,0,0,1,7.39,2.4C315.62,248.36,326.69,249.06,331.45,249.76Z" transform="translate(-280.34 -26.11)"/><path class="cls-13" d="M331.45,249.73c4.74-.7,15.85-1.42,19.78-2.86a27.52,27.52,0,0,1,7.36-2.35A14.7,14.7,0,0,0,369.66,234c1.75-5.8,4.94-19.9,3.81-27.71s-.52-20.38-.11-25.86-1.7-87.44-1.83-91.06.81-17,.25-20.57S369.21,57.21,368.23,50s-1-11.51-6.54-16.14-21.34-6.4-25-6.91a42.63,42.63,0,0,0-10.4,0c-3.7.51-19.56,2.28-25,6.91s-5.56,8.92-6.54,16.14-3,15.15-3.54,18.77.38,17,.25,20.57-2.21,85.89-1.81,91.36,1,17.74-.13,25.55,2.05,21.92,3.81,27.71a14.7,14.7,0,0,0,11.06,10.56,27.51,27.51,0,0,1,7.36,2.35C315.6,248.3,326.72,249,331.45,249.73Z" transform="translate(-280.34 -26.11)"/><path class="cls-14" d="M331.45,249.69c4.71-.7,15.87-1.45,19.78-2.89a28.1,28.1,0,0,1,7.32-2.29c4.94-1,9.17-4.76,10.91-10.56s4.91-19.9,3.79-27.71-.42-21,0-26.45-1.78-86.85-1.91-90.47.8-16.52.25-20.14-2.55-12-3.53-19.2-1-11.51-6.51-16.14-21.24-6.4-24.93-6.92a42.22,42.22,0,0,0-10.35,0c-3.68.51-19.46,2.28-24.93,6.92s-5.53,8.92-6.51,16.14-3,15.59-3.53,19.2.38,16.52.25,20.14-2.29,85.34-1.89,90.81,1.08,18.29,0,26.1,2,21.92,3.79,27.71,6,9.58,10.91,10.56a28.1,28.1,0,0,1,7.32,2.29C315.58,248.25,326.74,249,331.45,249.69Z" transform="translate(-280.34 -26.11)"/><path class="cls-15" d="M331.45,249.66c4.69-.7,15.89-1.47,19.78-2.91a28.74,28.74,0,0,1,7.29-2.23c4.92-1,9-4.76,10.77-10.56s4.89-19.9,3.77-27.71-.33-21.56.07-27-1.86-86.26-2-89.88.8-16.09.25-19.7S368.85,57.21,367.88,50s-1-11.51-6.47-16.14-21.14-6.41-24.81-6.92a41.82,41.82,0,0,0-10.3,0c-3.67.51-19.37,2.29-24.81,6.92S296,42.76,295,50s-3,16-3.51,19.64.38,16.08.25,19.7-2.37,84.79-2,90.27,1.16,18.84,0,26.65,2,21.92,3.77,27.71,5.85,9.58,10.77,10.56a28.74,28.74,0,0,1,7.29,2.23C315.56,248.19,326.76,249,331.45,249.66Z" transform="translate(-280.34 -26.11)"/><path class="cls-16" d="M331.45,249.63c4.67-.7,15.91-1.5,19.78-2.94a29.43,29.43,0,0,1,7.25-2.18c4.9-1,8.89-4.76,10.62-10.56s4.87-19.9,3.75-27.71-.23-22.15.17-27.62S371.08,92.94,371,89.32s.8-15.65.25-19.26S368.67,57.21,367.71,50s-1-11.51-6.44-16.14-21-6.41-24.69-6.92a41.42,41.42,0,0,0-10.25,0c-3.65.51-19.28,2.29-24.69,6.92S296.16,42.76,295.2,50s-2.94,16.46-3.49,20.08.38,15.64.25,19.26-2.45,84.24-2,89.72,1.25,19.39.14,27.2,2,21.92,3.75,27.71,5.72,9.58,10.62,10.56a29.43,29.43,0,0,1,7.25,2.18C315.55,248.14,326.78,248.93,331.45,249.63Z" transform="translate(-280.34 -26.11)"/><path class="cls-17" d="M331.45,249.6c4.65-.7,15.93-1.52,19.78-3a30.2,30.2,0,0,1,7.22-2.12c4.87-1,8.75-4.76,10.47-10.56s4.84-19.9,3.74-27.71-.14-22.73.26-28.21-2-85.09-2.16-88.71.79-15.21.24-18.83S368.49,57.21,367.53,50s-1-11.51-6.41-16.14-20.94-6.41-24.57-6.93a41,41,0,0,0-10.2,0c-3.63.51-19.18,2.3-24.57,6.93s-5.46,8.92-6.41,16.14-2.93,16.9-3.47,20.51.37,15.21.24,18.83S289.62,173,290,178.49s1.33,19.94.22,27.75,2,21.92,3.74,27.71,5.6,9.58,10.47,10.56a30.19,30.19,0,0,1,7.22,2.12C315.53,248.08,326.81,248.9,331.45,249.6Z" transform="translate(-280.34 -26.11)"/><path class="cls-18" d="M331.45,249.57c4.62-.7,15.95-1.54,19.78-3a31,31,0,0,1,7.18-2.07c4.85-1,8.62-4.76,10.33-10.56s4.82-19.9,3.72-27.71,0-23.32.35-28.8-2.12-84.5-2.24-88.12.79-14.78.24-18.39S368.31,57.21,367.36,50s-1-11.51-6.38-16.14-20.84-6.42-24.45-6.93a40.63,40.63,0,0,0-10.15,0c-3.61.51-19.09,2.3-24.45,6.93S296.5,42.76,295.55,50s-2.91,17.34-3.46,20.95.37,14.77.24,18.39-2.6,83.14-2.21,88.62,1.42,20.48.31,28.3,2,21.92,3.72,27.71,5.48,9.58,10.33,10.56a31,31,0,0,1,7.18,2.07C315.51,248,326.83,248.87,331.45,249.57Z" transform="translate(-280.34 -26.11)"/><path class="cls-19" d="M331.45,249.53c4.6-.7,16-1.57,19.78-3a32,32,0,0,1,7.15-2c4.83-1,8.48-4.76,10.18-10.56s4.8-19.9,3.7-27.71,0-23.91.44-29.39-2.2-83.91-2.33-87.53.79-14.34.24-18S368.13,57.21,367.18,50s-1-11.51-6.35-16.14-20.74-6.42-24.33-6.94a40.24,40.24,0,0,0-10.1,0c-3.6.51-19,2.3-24.33,6.94s-5.4,8.92-6.35,16.14-2.9,17.77-3.44,21.38.37,14.33.24,18-2.68,82.59-2.29,88.07,1.5,21,.4,28.85,2,21.92,3.7,27.71,5.35,9.58,10.18,10.56a32,32,0,0,1,7.15,2C315.49,248,326.85,248.84,331.45,249.53Z" transform="translate(-280.34 -26.11)"/><path class="cls-20" d="M331.45,249.5c4.58-.7,16-1.59,19.78-3a33,33,0,0,1,7.11-2c4.8-1,8.34-4.76,10-10.56s4.77-19.9,3.68-27.71.14-24.5.54-30-2.28-83.32-2.41-86.94.78-13.9.24-17.52S368,57.21,367,50s-1-11.51-6.32-16.14-20.63-6.43-24.21-6.94a39.85,39.85,0,0,0-10,0c-3.58.51-18.91,2.31-24.21,6.94S296.84,42.76,295.9,50,293,68.2,292.47,71.81s.37,13.9.24,17.52-2.76,82-2.37,87.52,1.58,21.58.49,29.4,2,21.92,3.68,27.71,5.23,9.58,10,10.56a33,33,0,0,1,7.11,2C315.47,247.91,326.87,248.81,331.45,249.5Z" transform="translate(-280.34 -26.11)"/><path class="cls-21" d="M331.45,249.47c4.56-.7,16-1.62,19.78-3.05a34.11,34.11,0,0,1,7.08-1.9c4.78-1,8.2-4.76,9.89-10.56s4.75-19.9,3.66-27.71.24-25.08.63-30.56S370.13,92.94,370,89.32s.78-13.47.24-17.08-2.47-15-3.41-22.26-1-11.51-6.29-16.14S340,27.41,336.45,26.9a39.46,39.46,0,0,0-10,0c-3.56.51-18.81,2.31-24.09,6.94S297,42.76,296.07,50s-2.87,18.65-3.41,22.26.37,13.46.24,17.08-2.84,81.49-2.45,87,1.67,22.13.58,29.95,2,21.92,3.66,27.71,5.11,9.58,9.89,10.56a34.11,34.11,0,0,1,7.08,1.9C315.45,247.86,326.9,248.77,331.45,249.47Z" transform="translate(-280.34 -26.11)"/><path class="cls-22" d="M331.45,249.44c4.53-.7,16-1.64,19.78-3.08a35.38,35.38,0,0,1,7-1.84c4.76-1,8.06-4.76,9.74-10.56s4.72-19.9,3.65-27.71.33-25.67.72-31.15-2.45-82.15-2.58-85.77.77-13,.24-16.64S367.59,57.21,366.66,50s-1-11.51-6.26-16.14-20.43-6.43-24-6.95a39.07,39.07,0,0,0-10,0c-3.54.51-18.72,2.32-24,6.95s-5.32,8.92-6.26,16.14-2.86,19.08-3.39,22.69.36,13,.24,16.64-2.92,80.95-2.53,86.42,1.75,22.68.67,30.5,2,21.92,3.65,27.71,5,9.58,9.74,10.56a35.38,35.38,0,0,1,7,1.84C315.43,247.8,326.92,248.74,331.45,249.44Z" transform="translate(-280.34 -26.11)"/><path class="cls-23" d="M331.45,249.41c4.51-.7,16-1.66,19.78-3.1,1.62-.62,2.28-.81,7-1.79s7.92-4.76,9.59-10.56,4.7-19.9,3.63-27.71.42-26.26.81-31.74-2.53-81.56-2.66-85.18.77-12.6.24-16.21-2.44-15.9-3.37-23.13-1-11.51-6.23-16.14-20.33-6.44-23.85-7a38.68,38.68,0,0,0-9.9,0c-3.52.51-18.63,2.32-23.85,7s-5.3,8.92-6.23,16.14S293.58,69.51,293,73.12s.36,12.59.24,16.21-3,80.4-2.61,85.87,1.84,23.23.76,31,2,21.92,3.63,27.71,4.86,9.58,9.59,10.56,5.39,1.17,7,1.79C315.41,247.74,326.94,248.71,331.45,249.41Z" transform="translate(-280.34 -26.11)"/><path class="cls-24" d="M331.45,249.38c4.49-.7,16.06-1.69,19.78-3.13,1.61-.62,2.27-.76,7-1.73s7.79-4.76,9.45-10.56,4.68-19.9,3.61-27.71.52-26.85.9-32.32-2.62-81-2.74-84.59.77-12.16.24-15.77S367.23,57.21,366.31,50s-1-11.51-6.19-16.14-20.23-6.44-23.74-7a38.3,38.3,0,0,0-9.85,0c-3.51.51-18.53,2.32-23.74,7S297.52,42.76,296.6,50s-2.83,20-3.36,23.57.36,12.15.24,15.77-3.07,79.85-2.69,85.32,1.92,23.78.85,31.59,1.95,21.92,3.61,27.71,4.74,9.58,9.45,10.56,5.36,1.11,7,1.73C315.4,247.69,327,248.68,331.45,249.38Z" transform="translate(-280.34 -26.11)"/><path class="cls-25" d="M331.45,249.34c4.47-.7,16.08-1.71,19.78-3.15,1.6-.62,2.25-.7,6.94-1.68s7.65-4.76,9.3-10.56,4.65-19.9,3.59-27.71.61-27.43,1-32.91-2.7-80.39-2.82-84S370,77.6,369.47,74s-2.42-16.78-3.34-24-1-11.51-6.16-16.14-20.13-6.45-23.62-7a37.92,37.92,0,0,0-9.8,0c-3.49.51-18.44,2.33-23.62,7s-5.24,8.92-6.16,16.14S294,70.38,293.43,74s.36,11.72.23,15.33-3.15,79.3-2.77,84.78,2,24.33.94,32.14,1.94,21.92,3.59,27.71,4.62,9.58,9.3,10.56,5.34,1.05,6.94,1.68C315.38,247.63,327,248.65,331.45,249.34Z" transform="translate(-280.34 -26.11)"/><path class="cls-26" d="M331.45,249.31c4.44-.7,16.1-1.74,19.78-3.17,1.59-.62,2.24-.64,6.9-1.62s7.51-4.76,9.15-10.56,4.63-19.9,3.57-27.71.71-28,1.09-33.5-2.78-79.8-2.91-83.42.76-11.29.23-14.9S366.87,57.21,366,50s-1-11.51-6.13-16.14-20-6.45-23.5-7a37.54,37.54,0,0,0-9.75,0c-3.47.51-18.35,2.33-23.5,7s-5.22,8.92-6.13,16.14-2.8,20.83-3.32,24.44.36,11.28.23,14.9-3.23,78.75-2.85,84.23,2.09,24.88,1,32.69S294,228.16,295.61,234s4.49,9.58,9.15,10.56,5.31,1,6.9,1.62C315.36,247.58,327,248.61,331.45,249.31Z" transform="translate(-280.34 -26.11)"/><path class="cls-27" d="M351.49,247.31c1.59-.62,2-1.82,6.65-2.79s7.51-4.76,9.15-10.56,4.63-19.9,3.57-27.71.71-23.21,1.09-28.68-1.07-86.39-1.19-90c-.6-17.67-.87-20.29-3.06-37.56-.91-7.23-2.73-12.25-7.88-16.88s-20-6.13-23.5-6.64a33.75,33.75,0,0,0-9.75,0c-3.47.51-18.35,2-23.5,6.64s-7,9.66-7.88,16.88c-2.19,17.27-2.45,19.89-3.06,37.56-.12,3.62-1.57,85-1.19,90.51s2.15,20.36,1.09,28.18S294,228.16,295.61,234s4.49,9.58,9.15,10.56,5.06,2.17,6.65,2.79C321.69,251.32,341.22,251.32,351.49,247.31Z" transform="translate(-280.34 -26.11)"/><path class="cls-27" d="M372,178.06s-1-47-1-51.66-1.63-52.9-1.85-56.11S367,61.61,365.53,65c-.7,1.69-4.44,18.59-4.85,29.37-.42,11.14-.27,23.49-.16,29.2C360.8,138.78,369.17,161.61,372,178.06Z" transform="translate(-280.34 -26.11)"/><path class="cls-28" d="M372,177.81s-1-46.75-1-51.41-1.64-52.4-1.85-55.62-2.11-8.68-3.52-5.25c-.7,1.69-4.32,18.11-4.72,28.9-.42,11.14-.26,23.49-.16,29.2C360.94,138.8,369.19,161.35,372,177.81Z" transform="translate(-280.34 -26.11)"/><path class="cls-29" d="M372,177.56s-1-46.5-1-51.15-1.64-51.91-1.85-55.12S367,62.6,365.57,66c-.69,1.69-4.2,17.64-4.6,28.43-.42,11.14-.26,23.49-.16,29.2C361.09,138.82,369.2,161.1,372,177.56Z" transform="translate(-280.34 -26.11)"/><path class="cls-30" d="M372,177.3s-1-46.24-1-50.9S369.29,75,369.08,71.78s-2.08-8.68-3.49-5.25c-.69,1.69-4.07,17.17-4.48,28-.42,11.14-.26,23.49-.16,29.2C361.23,138.84,369.21,160.85,372,177.3Z" transform="translate(-280.34 -26.11)"/><path class="cls-31" d="M372,177.05s-1-46-1-50.65-1.65-50.92-1.86-54.13S367,63.59,365.62,67c-.69,1.69-4,16.69-4.35,27.48-.41,11.14-.26,23.49-.16,29.2C361.38,138.87,369.23,160.59,372,177.05Z" transform="translate(-280.34 -26.11)"/><path class="cls-32" d="M372,176.8s-1-45.74-1-50.39S369.3,76,369.09,72.77s-2.06-8.68-3.45-5.25c-.68,1.69-3.83,16.22-4.23,27-.41,11.14-.26,23.49-.16,29.2C361.52,138.89,369.24,160.34,372,176.8Z" transform="translate(-280.34 -26.11)"/><path class="cls-33" d="M372,176.54s-1-45.48-1-50.14-1.65-49.93-1.86-53.14S367,64.58,365.66,68c-.68,1.69-3.71,15.75-4.11,26.53-.41,11.14-.26,23.49-.16,29.2C361.66,138.91,369.26,160.09,372,176.54Z" transform="translate(-280.34 -26.11)"/><path class="cls-34" d="M372,176.29s-1-45.23-1-49.89S369.3,77,369.09,73.76s-2-8.68-3.41-5.25c-.68,1.69-3.59,15.27-4,26.06-.41,11.14-.26,23.49-.16,29.2C361.81,138.93,369.27,159.83,372,176.29Z" transform="translate(-280.34 -26.11)"/><path class="cls-35" d="M372,176s-1-45-1-49.63-1.66-48.94-1.87-52.15-2-8.68-3.4-5.25c-.67,1.69-3.47,14.8-3.86,25.58-.4,11.14-.26,23.49-.16,29.2C362,138.95,369.29,159.58,372,176Z" transform="translate(-280.34 -26.11)"/><path class="cls-36" d="M372,175.78s-1-44.72-1-49.38S369.3,78,369.1,74.75s-2-8.68-3.38-5.25c-.67,1.69-3.35,14.32-3.74,25.11-.4,11.14-.25,23.49-.15,29.2C362.09,139,369.3,159.33,372,175.78Z" transform="translate(-280.34 -26.11)"/><path class="cls-37" d="M372,175.53s-1-44.47-1-49.12-1.67-47.95-1.87-51.16-2-8.68-3.36-5.25c-.67,1.69-3.23,13.85-3.61,24.64-.4,11.14-.25,23.49-.15,29.2C362.24,139,369.31,159.07,372,175.53Z" transform="translate(-280.34 -26.11)"/><path class="cls-38" d="M372,175.28s-1-44.22-1-48.87S369.31,79,369.1,75.74s-2-8.68-3.34-5.25c-.66,1.69-3.11,13.38-3.49,24.16-.4,11.14-.25,23.49-.15,29.2C362.38,139,369.33,158.82,372,175.28Z" transform="translate(-280.34 -26.11)"/><path class="cls-39" d="M372,175s-1-44-1-48.62-1.67-47-1.88-50.17-2-8.68-3.32-5.25c-.66,1.69-3,12.9-3.37,23.69-.4,11.14-.25,23.49-.15,29.2C362.52,139,369.34,158.57,372,175Z" transform="translate(-280.34 -26.11)"/><path class="cls-40" d="M372,174.77s-1-43.71-1-48.36-1.68-46.46-1.88-49.68-2-8.68-3.31-5.25c-.65,1.69-2.86,12.43-3.24,23.21-.39,11.14-.25,23.49-.15,29.2C362.67,139.05,369.36,158.31,372,174.77Z" transform="translate(-280.34 -26.11)"/><path class="cls-26" d="M372,174.52s-1-43.46-1-48.11-1.68-46-1.88-49.18-2-8.68-3.29-5.25c-.65,1.69-2.74,12-3.12,22.74-.39,11.14-.25,23.49-.15,29.2C362.81,139.08,369.37,158.06,372,174.52Z" transform="translate(-280.34 -26.11)"/><path class="cls-23" d="M372,174.26s-1-43.2-1-47.86-1.69-45.47-1.88-48.69-2-8.68-3.27-5.25c-.65,1.69-2.62,11.48-3,22.27-.39,11.14-.25,23.49-.15,29.2C363,139.1,369.39,157.81,372,174.26Z" transform="translate(-280.34 -26.11)"/><path class="cls-41" d="M372,174s-1-42.95-1-47.6-1.69-45-1.89-48.19-1.94-8.68-3.25-5.25c-.64,1.69-2.5,11-2.88,21.79-.39,11.14-.24,23.49-.15,29.2C363.1,139.12,369.4,157.55,372,174Z" transform="translate(-280.34 -26.11)"/><path class="cls-42" d="M372,173.76s-.95-42.7-.95-47.35-1.69-44.48-1.89-47.7-1.93-8.68-3.23-5.25c-.64,1.69-2.38,10.53-2.75,21.32-.39,11.14-.24,23.49-.15,29.2C363.24,139.14,369.41,157.3,372,173.76Z" transform="translate(-280.34 -26.11)"/><path class="cls-14" d="M372,173.5s-.94-42.44-.94-47.1-1.7-44-1.89-47.21-1.92-8.68-3.21-5.25c-.64,1.69-2.26,10.06-2.63,20.85-.38,11.14-.24,23.49-.15,29.2C363.39,139.16,369.43,157,372,173.5Z" transform="translate(-280.34 -26.11)"/><path class="cls-11" d="M372,173.25s-.94-42.19-.94-46.84-1.7-43.5-1.89-46.71-1.91-8.68-3.2-5.25c-.63,1.69-2.14,9.59-2.51,20.37-.38,11.14-.24,23.49-.15,29.2C363.53,139.18,369.44,156.79,372,173.25Z" transform="translate(-280.34 -26.11)"/><path class="cls-8" d="M372,173s-.93-41.94-.93-46.59-1.7-43-1.9-46.22-1.9-8.68-3.18-5.25c-.63,1.69-2,9.11-2.38,19.9-.38,11.14-.24,23.49-.15,29.2C363.67,139.2,369.46,156.54,372,173Z" transform="translate(-280.34 -26.11)"/><path class="cls-2" d="M372,172.74s-.92-41.68-.92-46.34-1.71-42.51-1.9-45.72S367.25,72,366,75.44c-.63,1.69-1.89,8.64-2.26,19.42-.38,11.14-.24,23.49-.14,29.2C363.82,139.22,369.47,156.29,372,172.74Z" transform="translate(-280.34 -26.11)"/><path class="cls-27" d="M290.95,178.06s1-47,1-51.66,1.63-52.9,1.85-56.11,2.12-8.68,3.54-5.25c.7,1.69,3.45,18.59,3.86,29.37.42,11.14.27,23.49.16,29.2C301.12,138.78,293.74,161.61,290.95,178.06Z" transform="translate(-280.34 -26.11)"/><path class="cls-28" d="M290.95,177.81s1-46.75,1-51.41,1.63-52.4,1.85-55.62,2.11-8.68,3.52-5.25c.7,1.69,3.38,18.11,3.78,28.9.42,11.14.27,23.49.16,29.2C301,138.8,293.72,161.35,290.95,177.81Z" transform="translate(-280.34 -26.11)"/><path class="cls-29" d="M290.95,177.56s1-46.5,1-51.15,1.64-51.91,1.85-55.12,2.09-8.68,3.51-5.25c.69,1.69,3.3,17.64,3.71,28.42.42,11.14.26,23.49.16,29.2C300.92,138.82,293.71,161.1,290.95,177.56Z" transform="translate(-280.34 -26.11)"/><path class="cls-30" d="M290.95,177.3s1-46.24,1-50.9,1.64-51.41,1.85-54.63,2.08-8.68,3.49-5.25c.69,1.69,3.23,17.17,3.63,28,.42,11.14.26,23.49.16,29.2C300.83,138.84,293.69,160.85,290.95,177.3Z" transform="translate(-280.34 -26.11)"/><path class="cls-31" d="M290.95,177.05s1-46,1-50.65,1.65-50.92,1.86-54.13,2.07-8.68,3.47-5.25c.69,1.69,3.15,16.69,3.55,27.48.41,11.14.26,23.49.16,29.2C300.73,138.86,293.68,160.59,290.95,177.05Z" transform="translate(-280.34 -26.11)"/><path class="cls-32" d="M290.95,176.8s1-45.74,1-50.39,1.65-50.42,1.86-53.64,2.06-8.68,3.45-5.25c.68,1.69,3.08,16.22,3.48,27,.41,11.14.26,23.49.16,29.2C300.63,138.88,293.66,160.34,290.95,176.8Z" transform="translate(-280.34 -26.11)"/><path class="cls-33" d="M290.95,176.54s1-45.48,1-50.14,1.65-49.93,1.86-53.14,2.05-8.68,3.43-5.25c.68,1.69,3,15.74,3.4,26.53.41,11.14.26,23.49.16,29.2C300.54,138.91,293.65,160.09,290.95,176.54Z" transform="translate(-280.34 -26.11)"/><path class="cls-34" d="M290.95,176.29s1-45.23,1-49.89,1.66-49.43,1.86-52.65,2-8.68,3.41-5.25c.68,1.69,2.93,15.27,3.32,26.06.41,11.14.26,23.49.16,29.2C300.44,138.93,293.63,159.83,290.95,176.29Z" transform="translate(-280.34 -26.11)"/><path class="cls-35" d="M290.95,176s1-45,1-49.63,1.66-48.94,1.87-52.15,2-8.68,3.4-5.25c.67,1.69,2.86,14.8,3.25,25.58.4,11.14.26,23.49.16,29.2C300.34,138.95,293.62,159.58,290.95,176Z" transform="translate(-280.34 -26.11)"/><path class="cls-36" d="M290.95,175.78s1-44.72,1-49.38S293.6,78,293.81,74.75s2-8.68,3.38-5.25c.67,1.69,2.78,14.32,3.17,25.11.4,11.14.25,23.49.15,29.2C300.25,139,293.61,159.33,290.95,175.78Z" transform="translate(-280.34 -26.11)"/><path class="cls-37" d="M290.95,175.53s1-44.47,1-49.12,1.67-47.95,1.87-51.16,2-8.68,3.36-5.25c.66,1.69,2.71,13.85,3.1,24.63.4,11.14.25,23.49.15,29.2C300.15,139,293.59,159.07,290.95,175.53Z" transform="translate(-280.34 -26.11)"/><path class="cls-38" d="M290.95,175.28s1-44.22,1-48.87S293.6,79,293.8,75.74s2-8.68,3.34-5.25c.66,1.69,2.63,13.38,3,24.16.4,11.14.25,23.49.15,29.2C300.05,139,293.58,158.82,290.95,175.28Z" transform="translate(-280.34 -26.11)"/><path class="cls-39" d="M290.95,175s1-44,1-48.62,1.67-47,1.88-50.17,2-8.68,3.32-5.25c.66,1.69,2.56,12.9,2.94,23.69.4,11.14.25,23.49.15,29.2C300,139,293.56,158.57,290.95,175Z" transform="translate(-280.34 -26.11)"/><path class="cls-40" d="M290.95,174.77s1-43.71,1-48.36,1.68-46.46,1.88-49.68,2-8.68,3.31-5.25c.65,1.69,2.49,12.43,2.87,23.21.39,11.14.25,23.49.15,29.2C299.86,139.05,293.55,158.31,290.95,174.77Z" transform="translate(-280.34 -26.11)"/><path class="cls-26" d="M290.95,174.52s1-43.46,1-48.11,1.68-46,1.88-49.18,2-8.68,3.29-5.25c.65,1.69,2.41,12,2.79,22.74.39,11.14.25,23.49.15,29.2C299.76,139.07,293.53,158.06,290.95,174.52Z" transform="translate(-280.34 -26.11)"/><path class="cls-23" d="M290.95,174.26s1-43.2,1-47.86,1.69-45.47,1.88-48.69,2-8.68,3.27-5.25c.65,1.69,2.34,11.48,2.72,22.27.39,11.14.25,23.49.15,29.2C299.67,139.1,293.52,157.81,290.95,174.26Z" transform="translate(-280.34 -26.11)"/><path class="cls-41" d="M290.95,174s1-42.95,1-47.6,1.69-45,1.89-48.19S295.73,69.53,297,73c.64,1.69,2.26,11,2.64,21.79.39,11.14.24,23.49.15,29.2C299.57,139.12,293.51,157.55,290.95,174Z" transform="translate(-280.34 -26.11)"/><path class="cls-42" d="M290.95,173.76s.95-42.7.95-47.35,1.69-44.48,1.89-47.7S295.72,70,297,73.46c.64,1.69,2.19,10.53,2.56,21.32.39,11.14.24,23.49.15,29.2C299.48,139.14,293.49,157.3,290.95,173.76Z" transform="translate(-280.34 -26.11)"/><path class="cls-14" d="M290.95,173.5s.94-42.44.94-47.1,1.7-44,1.89-47.21S295.7,70.52,297,74c.64,1.69,2.12,10.06,2.49,20.85.38,11.14.24,23.49.15,29.2C299.38,139.16,293.48,157,290.95,173.5Z" transform="translate(-280.34 -26.11)"/><path class="cls-11" d="M290.95,173.25s.94-42.19.94-46.84,1.7-43.5,1.89-46.71,1.91-8.68,3.2-5.25c.63,1.69,2,9.59,2.41,20.37.38,11.14.24,23.49.15,29.2C299.28,139.18,293.46,156.79,290.95,173.25Z" transform="translate(-280.34 -26.11)"/><path class="cls-8" d="M290.95,173s.93-41.94.93-46.59,1.7-43,1.9-46.22,1.9-8.68,3.18-5.25c.63,1.69,2,9.11,2.34,19.9.38,11.14.24,23.49.15,29.2C299.19,139.2,293.45,156.54,290.95,173Z" transform="translate(-280.34 -26.11)"/><path class="cls-2" d="M290.95,172.74s.92-41.68.92-46.34,1.71-42.51,1.9-45.72,1.89-8.68,3.16-5.25c.63,1.69,1.89,8.64,2.26,19.42.38,11.14.24,23.49.14,29.2C299.09,139.22,293.43,156.29,290.95,172.74Z" transform="translate(-280.34 -26.11)"/><path class="cls-43" d="M372,172.74s-1-41.68-1-46.34S369.73,81.2,369.52,78,367.4,69.3,366,72.73c-.7,1.69-1.68,11.34-2.08,22.13-.42,11.14-.27,23.49-.16,29.2C364,139.22,369.17,156.29,372,172.74Z" transform="translate(-280.34 -26.11)"/><path class="cls-43" d="M290.95,172.74s1-41.68,1-46.34,1.19-45.21,1.4-48.43,2.12-8.68,3.54-5.25c.7,1.69,1.68,11.34,2.08,22.13.42,11.14.27,23.49.16,29.2C298.9,139.22,293.74,156.29,290.95,172.74Z" transform="translate(-280.34 -26.11)"/><path class="cls-44" d="M365.92,72.87c-.55,1.59-1.24,7.76-1.71,15.44a43.56,43.56,0,0,1,4.22,2.54c-.21-6.83-.4-12.23-.47-13.32-.19-2.85-.89-6.3-2-4.67Zm-1.82,17.28a36.59,36.59,0,0,1,4.39,2.76c.26,8.37.54,18.36.71,25.24a20.41,20.41,0,0,0-5.59-3.25c0-5.93,0-13.21.27-20,.06-1.6.13-3.18.22-4.71Zm-.47,27.53c0,2.55.06,4.74.09,6.38.23,12.32,3.68,25.9,6.46,39.38-.3-12.51-.82-34.2-.82-37.48,0-.41,0-1.12,0-2A21.3,21.3,0,0,0,363.64,117.68Z" transform="translate(-280.34 -26.11)"/><path class="cls-44" d="M297,72.87c.55,1.59,1.24,7.76,1.71,15.44a43.56,43.56,0,0,0-4.22,2.54c.21-6.83.4-12.23.47-13.32.19-2.85.89-6.3,2-4.67Zm1.82,17.28a36.58,36.58,0,0,0-4.39,2.76c-.26,8.37-.54,18.36-.71,25.24a20.42,20.42,0,0,1,5.59-3.25c0-5.93,0-13.21-.27-20-.06-1.6-.13-3.18-.22-4.71Zm.47,27.53c0,2.55-.06,4.74-.09,6.38-.23,12.32-3.68,25.9-6.46,39.38.3-12.51.82-34.2.82-37.48,0-.41,0-1.12,0-2A21.3,21.3,0,0,1,299.27,117.68Z" transform="translate(-280.34 -26.11)"/><path class="cls-45" d="M351.49,245.75c1.59-.53,2-1.56,6.65-2.39a10.63,10.63,0,0,0,7.61-5.53,16.15,16.15,0,0,1-2.15.47c-5.62.84-6.1,1.86-8,2.39-12.37,3.43-35.91,3.43-48.28,0-1.92-.53-2.4-1.56-8-2.39a16.15,16.15,0,0,1-2.15-.47,10.63,10.63,0,0,0,7.61,5.53c4.66.84,5.06,1.86,6.65,2.39C321.69,249.18,341.22,249.18,351.49,245.75Z" transform="translate(-280.34 -26.11)"/><path class="cls-45" d="M351.49,245.66c1.59-.54,2-1.57,6.65-2.41a10.64,10.64,0,0,0,7.61-5.57,16,16,0,0,1-2.15.47c-5.62.84-6.1,1.87-8,2.41-12.37,3.46-35.91,3.46-48.28,0-1.92-.54-2.4-1.57-8-2.41a16,16,0,0,1-2.15-.47,10.64,10.64,0,0,0,7.61,5.57c4.66.84,5.06,1.87,6.65,2.41C321.69,249.11,341.22,249.11,351.49,245.66Z" transform="translate(-280.34 -26.11)"/><path class="cls-45" d="M351.49,245.56c1.59-.54,2-1.58,6.65-2.43a10.65,10.65,0,0,0,7.61-5.62,15.94,15.94,0,0,1-2.15.47c-5.62.85-6.1,1.89-8,2.43-12.37,3.49-35.91,3.49-48.28,0-1.92-.54-2.4-1.58-8-2.43a15.94,15.94,0,0,1-2.15-.47,10.65,10.65,0,0,0,7.61,5.62c4.66.85,5.06,1.89,6.65,2.43C321.69,249.05,341.22,249.05,351.49,245.56Z" transform="translate(-280.34 -26.11)"/><path class="cls-45" d="M351.49,245.47c1.59-.54,2-1.59,6.65-2.45a10.65,10.65,0,0,0,7.61-5.66,15.83,15.83,0,0,1-2.15.48c-5.62.86-6.1,1.9-8,2.45-12.37,3.51-35.91,3.51-48.28,0-1.92-.54-2.4-1.59-8-2.45a15.83,15.83,0,0,1-2.15-.48,10.65,10.65,0,0,0,7.61,5.66c4.66.86,5.06,1.9,6.65,2.45C321.69,249,341.22,249,351.49,245.47Z" transform="translate(-280.34 -26.11)"/><path class="cls-45" d="M351.49,245.38c1.59-.55,2-1.61,6.65-2.47a10.66,10.66,0,0,0,7.61-5.71,15.73,15.73,0,0,1-2.15.48c-5.62.86-6.1,1.92-8,2.47-12.37,3.54-35.91,3.54-48.28,0-1.92-.55-2.4-1.61-8-2.47a15.73,15.73,0,0,1-2.15-.48,10.66,10.66,0,0,0,7.61,5.71c4.66.86,5.06,1.92,6.65,2.47C321.69,248.92,341.22,248.92,351.49,245.38Z" transform="translate(-280.34 -26.11)"/><path class="cls-45" d="M351.49,245.29c1.59-.55,2-1.62,6.65-2.49a10.67,10.67,0,0,0,7.61-5.75,15.62,15.62,0,0,1-2.15.49c-5.62.87-6.1,1.93-8,2.49-12.37,3.57-35.91,3.57-48.28,0-1.92-.55-2.4-1.62-8-2.49a15.62,15.62,0,0,1-2.15-.49,10.67,10.67,0,0,0,7.61,5.75c4.66.87,5.06,1.93,6.65,2.49C321.69,248.86,341.22,248.86,351.49,245.29Z" transform="translate(-280.34 -26.11)"/><path class="cls-45" d="M351.49,245.2c1.59-.56,2-1.63,6.65-2.51a10.68,10.68,0,0,0,7.61-5.79,15.52,15.52,0,0,1-2.15.49c-5.62.88-6.1,1.95-8,2.51-12.37,3.6-35.91,3.6-48.28,0-1.92-.56-2.4-1.63-8-2.51a15.52,15.52,0,0,1-2.15-.49,10.68,10.68,0,0,0,7.61,5.79c4.66.88,5.06,1.95,6.65,2.51C321.69,248.8,341.22,248.8,351.49,245.2Z" transform="translate(-280.34 -26.11)"/><path class="cls-45" d="M351.49,245.11c1.59-.56,2-1.64,6.65-2.53a10.69,10.69,0,0,0,7.61-5.84,15.42,15.42,0,0,1-2.15.49c-5.62.88-6.1,2-8,2.53-12.37,3.62-35.91,3.62-48.28,0-1.92-.56-2.4-1.64-8-2.53a15.42,15.42,0,0,1-2.15-.49,10.69,10.69,0,0,0,7.61,5.84c4.66.88,5.06,2,6.65,2.53C321.69,248.73,341.22,248.73,351.49,245.11Z" transform="translate(-280.34 -26.11)"/><path class="cls-45" d="M351.49,245c1.59-.57,2-1.66,6.65-2.55a10.7,10.7,0,0,0,7.61-5.88,15.33,15.33,0,0,1-2.15.5c-5.62.89-6.1,2-8,2.55-12.37,3.65-35.91,3.65-48.28,0-1.92-.57-2.4-1.66-8-2.55a15.33,15.33,0,0,1-2.15-.5,10.7,10.7,0,0,0,7.61,5.88c4.66.89,5.06,2,6.65,2.55C321.69,248.67,341.22,248.67,351.49,245Z" transform="translate(-280.34 -26.11)"/><path class="cls-45" d="M351.49,244.93c1.59-.57,2-1.67,6.65-2.56a10.71,10.71,0,0,0,7.61-5.93,15.23,15.23,0,0,1-2.15.5c-5.62.9-6.1,2-8,2.56-12.37,3.68-35.91,3.68-48.28,0-1.92-.57-2.4-1.67-8-2.56a15.23,15.23,0,0,1-2.15-.5,10.71,10.71,0,0,0,7.61,5.93c4.66.9,5.06,2,6.65,2.56C321.69,248.61,341.22,248.61,351.49,244.93Z" transform="translate(-280.34 -26.11)"/><path class="cls-45" d="M351.49,244.84c1.59-.57,2-1.68,6.65-2.58a10.73,10.73,0,0,0,7.61-6,15.14,15.14,0,0,1-2.15.5c-5.62.9-6.1,2-8,2.58-12.37,3.7-35.91,3.7-48.28,0-1.92-.57-2.4-1.68-8-2.58a15.14,15.14,0,0,1-2.15-.5,10.73,10.73,0,0,0,7.61,6c4.66.9,5.06,2,6.65,2.58C321.69,248.54,341.22,248.54,351.49,244.84Z" transform="translate(-280.34 -26.11)"/><path class="cls-45" d="M351.49,244.75c1.59-.58,2-1.69,6.65-2.6a10.74,10.74,0,0,0,7.61-6,15,15,0,0,1-2.15.51c-5.62.91-6.1,2-8,2.6-12.37,3.73-35.91,3.73-48.28,0-1.92-.58-2.4-1.69-8-2.6a15,15,0,0,1-2.15-.51,10.74,10.74,0,0,0,7.61,6c4.66.91,5.06,2,6.65,2.6C321.69,248.48,341.22,248.48,351.49,244.75Z" transform="translate(-280.34 -26.11)"/><path class="cls-45" d="M351.49,244.66c1.59-.58,2-1.71,6.65-2.62a10.75,10.75,0,0,0,7.61-6.06,15,15,0,0,1-2.15.51c-5.62.92-6.1,2-8,2.62-12.37,3.76-35.91,3.76-48.28,0-1.92-.58-2.4-1.71-8-2.62a15,15,0,0,1-2.15-.51,10.75,10.75,0,0,0,7.61,6.06c4.66.92,5.06,2,6.65,2.62C321.69,248.41,341.22,248.41,351.49,244.66Z" transform="translate(-280.34 -26.11)"/><path class="cls-45" d="M351.49,244.56c1.59-.59,2-1.72,6.65-2.64,3.45-.68,5.9-2.82,7.61-6.1a14.86,14.86,0,0,1-2.15.52c-5.62.92-6.1,2.05-8,2.64-12.37,3.79-35.91,3.79-48.28,0-1.92-.59-2.4-1.72-8-2.64a14.86,14.86,0,0,1-2.15-.52c1.71,3.28,4.17,5.42,7.61,6.1,4.66.92,5.06,2.05,6.65,2.64C321.69,248.35,341.22,248.35,351.49,244.56Z" transform="translate(-280.34 -26.11)"/><path class="cls-45" d="M351.49,244.47c1.59-.59,2-1.73,6.65-2.66,3.45-.69,5.9-2.84,7.61-6.15a14.77,14.77,0,0,1-2.15.52c-5.62.93-6.1,2.07-8,2.66-12.37,3.81-35.91,3.81-48.28,0-1.92-.59-2.4-1.73-8-2.66a14.77,14.77,0,0,1-2.15-.52c1.71,3.31,4.17,5.46,7.61,6.15,4.66.93,5.06,2.07,6.65,2.66C321.69,248.29,341.22,248.29,351.49,244.47Z" transform="translate(-280.34 -26.11)"/><path class="cls-45" d="M351.49,244.38c1.59-.6,2-1.74,6.65-2.68,3.45-.69,5.9-2.86,7.61-6.19a14.69,14.69,0,0,1-2.15.52c-5.62.94-6.1,2.08-8,2.68-12.37,3.84-35.91,3.84-48.28,0-1.92-.6-2.4-1.74-8-2.68a14.69,14.69,0,0,1-2.15-.52c1.71,3.33,4.17,5.5,7.61,6.19,4.66.94,5.06,2.08,6.65,2.68C321.69,248.22,341.22,248.22,351.49,244.38Z" transform="translate(-280.34 -26.11)"/><path class="cls-45" d="M351.49,244.29c1.59-.6,2-1.75,6.65-2.7,3.45-.7,5.9-2.88,7.61-6.24a14.6,14.6,0,0,1-2.15.53c-5.62.94-6.1,2.1-8,2.7-12.37,3.87-35.91,3.87-48.28,0-1.92-.6-2.4-1.75-8-2.7a14.6,14.6,0,0,1-2.15-.53c1.71,3.36,4.17,5.54,7.61,6.24,4.66.94,5.06,2.1,6.65,2.7C321.69,248.16,341.22,248.16,351.49,244.29Z" transform="translate(-280.34 -26.11)"/><path class="cls-45" d="M351.49,244.2c1.59-.6,2-1.77,6.65-2.72,3.45-.7,5.9-2.9,7.61-6.28a14.52,14.52,0,0,1-2.15.53c-5.62.95-6.1,2.11-8,2.72-12.37,3.9-35.91,3.9-48.28,0-1.92-.6-2.4-1.77-8-2.72a14.52,14.52,0,0,1-2.15-.53c1.71,3.38,4.17,5.58,7.61,6.28,4.66.95,5.06,2.11,6.65,2.72C321.69,248.1,341.22,248.1,351.49,244.2Z" transform="translate(-280.34 -26.11)"/><path class="cls-45" d="M351.49,244.11c1.59-.61,2-1.78,6.65-2.74,3.45-.71,5.9-2.92,7.61-6.33a14.43,14.43,0,0,1-2.15.53c-5.62,1-6.1,2.13-8,2.74-12.37,3.92-35.91,3.92-48.28,0-1.92-.61-2.4-1.78-8-2.74a14.43,14.43,0,0,1-2.15-.53c1.71,3.4,4.17,5.62,7.61,6.33,4.66,1,5.06,2.13,6.65,2.74C321.69,248,341.22,248,351.49,244.11Z" transform="translate(-280.34 -26.11)"/><path class="cls-45" d="M351.49,244c1.59-.61,2-1.79,6.65-2.76,3.45-.71,5.9-2.94,7.61-6.37a14.35,14.35,0,0,1-2.15.54c-5.62,1-6.1,2.14-8,2.76-12.37,4-35.91,4-48.28,0-1.92-.61-2.4-1.79-8-2.76a14.35,14.35,0,0,1-2.15-.54c1.71,3.43,4.17,5.66,7.61,6.37,4.66,1,5.06,2.14,6.65,2.76C321.69,248,341.22,248,351.49,244Z" transform="translate(-280.34 -26.11)"/><path class="cls-45" d="M351.49,243.93c1.59-.62,2-1.8,6.65-2.77,3.45-.72,5.9-3,7.61-6.41a14.27,14.27,0,0,1-2.15.54c-5.62,1-6.1,2.16-8,2.77-12.37,4-35.91,4-48.28,0-1.92-.62-2.4-1.8-8-2.77a14.27,14.27,0,0,1-2.15-.54c1.71,3.45,4.17,5.7,7.61,6.41,4.66,1,5.06,2.16,6.65,2.77C321.69,247.91,341.22,247.91,351.49,243.93Z" transform="translate(-280.34 -26.11)"/><path class="cls-45" d="M351.49,243.84c1.59-.62,2-1.82,6.65-2.79,3.45-.72,5.9-3,7.61-6.46a14.19,14.19,0,0,1-2.15.55c-5.62,1-6.1,2.17-8,2.79-12.37,4-35.91,4-48.28,0-1.92-.62-2.4-1.82-8-2.79a14.19,14.19,0,0,1-2.15-.55c1.71,3.47,4.17,5.74,7.61,6.46,4.66,1,5.06,2.17,6.65,2.79C321.69,247.84,341.22,247.84,351.49,243.84Z" transform="translate(-280.34 -26.11)"/><path class="cls-46" d="M351.52,243.61c1.6-.62,2-1.82,6.66-2.79,3.45-.72,5.91-3,7.63-6.46a14.23,14.23,0,0,1-2.15.55c-5.63,1-6.11,2.17-8,2.79-12.39,4-36,4-48.36,0-1.92-.62-2.4-1.82-8-2.79a14.23,14.23,0,0,1-2.15-.55c1.71,3.47,4.17,5.74,7.63,6.46,4.67,1,5.07,2.17,6.66,2.79C321.67,247.62,341.24,247.62,351.52,243.61Z" transform="translate(-280.34 -26.11)"/><path class="cls-47" d="M351.56,243.39c1.6-.62,2-1.82,6.67-2.79,3.46-.72,5.92-3,7.64-6.46a14.28,14.28,0,0,1-2.16.55c-5.63,1-6.12,2.17-8,2.79-12.41,4-36,4-48.44,0-1.93-.62-2.41-1.82-8-2.79a14.28,14.28,0,0,1-2.16-.55c1.72,3.47,4.18,5.74,7.64,6.46,4.68,1,5.08,2.17,6.67,2.79C321.65,247.4,341.25,247.4,351.56,243.39Z" transform="translate(-280.34 -26.11)"/><path class="cls-48" d="M351.59,243.17c1.6-.62,2-1.82,6.69-2.79,3.47-.72,5.93-3,7.65-6.46a14.32,14.32,0,0,1-2.16.55c-5.64,1-6.13,2.17-8.06,2.79-12.43,4-36.09,4-48.52,0-1.93-.62-2.41-1.82-8.06-2.79a14.32,14.32,0,0,1-2.16-.55c1.72,3.47,4.19,5.74,7.65,6.46,4.68,1,5.09,2.17,6.69,2.79C321.64,247.18,341.27,247.18,351.59,243.17Z" transform="translate(-280.34 -26.11)"/><path class="cls-49" d="M351.62,242.95c1.6-.62,2-1.82,6.7-2.79,3.47-.72,5.94-3,7.67-6.46a14.37,14.37,0,0,1-2.16.55c-5.65,1-6.14,2.17-8.07,2.79-12.45,4-36.15,4-48.6,0-1.93-.62-2.42-1.82-8.07-2.79a14.37,14.37,0,0,1-2.16-.55c1.72,3.47,4.19,5.74,7.67,6.46,4.69,1,5.09,2.17,6.7,2.79C321.62,247,341.29,247,351.62,242.95Z" transform="translate(-280.34 -26.11)"/><path class="cls-50" d="M351.66,242.73c1.61-.62,2-1.82,6.71-2.79,3.48-.72,6-3,7.68-6.46a14.41,14.41,0,0,1-2.17.55c-5.66,1-6.15,2.17-8.08,2.79-12.47,4-36.21,4-48.68,0-1.94-.62-2.42-1.82-8.08-2.79a14.41,14.41,0,0,1-2.17-.55c1.73,3.47,4.2,5.74,7.68,6.46,4.7,1,5.1,2.17,6.71,2.79C321.6,246.73,341.3,246.73,351.66,242.73Z" transform="translate(-280.34 -26.11)"/><path class="cls-51" d="M351.69,242.51c1.61-.62,2-1.82,6.72-2.79,3.48-.72,6-3,7.69-6.46a14.45,14.45,0,0,1-2.17.55c-5.67,1-6.16,2.17-8.1,2.79-12.5,4-36.27,4-48.77,0-1.94-.62-2.42-1.82-8.1-2.79a14.45,14.45,0,0,1-2.17-.55c1.73,3.47,4.21,5.74,7.69,6.46,4.71,1,5.11,2.17,6.72,2.79C321.59,246.51,341.32,246.51,351.69,242.51Z" transform="translate(-280.34 -26.11)"/><path class="cls-52" d="M351.73,242.28c1.61-.62,2-1.82,6.73-2.79,3.49-.72,6-3,7.7-6.46a14.5,14.5,0,0,1-2.17.55c-5.68,1-6.17,2.17-8.11,2.79-12.52,4-36.33,4-48.85,0-1.94-.62-2.43-1.82-8.11-2.79a14.5,14.5,0,0,1-2.17-.55c1.73,3.47,4.22,5.74,7.7,6.46,4.72,1,5.12,2.17,6.73,2.79C321.57,246.29,341.34,246.29,351.73,242.28Z" transform="translate(-280.34 -26.11)"/><path class="cls-53" d="M351.76,242.06c1.61-.62,2-1.82,6.74-2.79,3.49-.72,6-3,7.72-6.46a14.54,14.54,0,0,1-2.18.55c-5.69,1-6.18,2.17-8.12,2.79-12.54,4-36.39,4-48.93,0-1.94-.62-2.43-1.82-8.12-2.79a14.54,14.54,0,0,1-2.18-.55c1.73,3.47,4.22,5.74,7.72,6.46,4.72,1,5.13,2.17,6.74,2.79C321.55,246.07,341.35,246.07,351.76,242.06Z" transform="translate(-280.34 -26.11)"/><path class="cls-54" d="M351.79,241.84c1.62-.62,2-1.82,6.75-2.79,3.5-.72,6-3,7.73-6.46a14.58,14.58,0,0,1-2.18.55c-5.7,1-6.19,2.17-8.14,2.79-12.56,4-36.45,4-49,0-1.95-.62-2.44-1.82-8.14-2.79a14.58,14.58,0,0,1-2.18-.55c1.74,3.47,4.23,5.74,7.73,6.46,4.73,1,5.14,2.17,6.75,2.79C321.54,245.85,341.37,245.85,351.79,241.84Z" transform="translate(-280.34 -26.11)"/><path class="cls-55" d="M351.83,241.62c1.62-.62,2-1.82,6.76-2.79,3.51-.72,6-3,7.74-6.46a14.63,14.63,0,0,1-2.19.55c-5.71,1-6.2,2.17-8.15,2.79-12.58,4-36.51,4-49.09,0-2-.62-2.44-1.82-8.15-2.79a14.63,14.63,0,0,1-2.19-.55c1.74,3.47,4.24,5.74,7.74,6.46,4.74,1,5.15,2.17,6.76,2.79C321.52,245.63,341.39,245.63,351.83,241.62Z" transform="translate(-280.34 -26.11)"/><path class="cls-56" d="M351.86,241.4c1.62-.62,2-1.82,6.78-2.79,3.51-.72,6-3,7.76-6.46a14.67,14.67,0,0,1-2.19.55c-5.72,1-6.21,2.17-8.16,2.79-12.6,4-36.57,4-49.17,0-2-.62-2.44-1.82-8.16-2.79a14.67,14.67,0,0,1-2.19-.55c1.74,3.47,4.24,5.74,7.76,6.46,4.75,1,5.15,2.17,6.78,2.79C321.5,245.4,341.4,245.4,351.86,241.4Z" transform="translate(-280.34 -26.11)"/><path class="cls-57" d="M351.89,241.18c1.63-.62,2-1.82,6.79-2.79,3.52-.72,6-3,7.77-6.46a14.72,14.72,0,0,1-2.19.55c-5.73,1-6.22,2.17-8.18,2.79-12.62,4-36.63,4-49.26,0-2-.62-2.45-1.82-8.18-2.79a14.72,14.72,0,0,1-2.19-.55c1.75,3.47,4.25,5.74,7.77,6.46,4.76,1,5.16,2.17,6.79,2.79C321.49,245.18,341.42,245.18,351.89,241.18Z" transform="translate(-280.34 -26.11)"/><path class="cls-58" d="M351.93,241c1.63-.62,2-1.82,6.8-2.79,3.52-.72,6-3,7.78-6.46a14.76,14.76,0,0,1-2.2.55c-5.74,1-6.23,2.17-8.19,2.79-12.64,4-36.7,4-49.34,0-2-.62-2.45-1.82-8.19-2.79a14.76,14.76,0,0,1-2.2-.55c1.75,3.47,4.26,5.74,7.78,6.46,4.76,1,5.17,2.17,6.8,2.79C321.47,245,341.44,245,351.93,241Z" transform="translate(-280.34 -26.11)"/><path class="cls-59" d="M352,240.73c1.63-.62,2-1.82,6.81-2.79,3.53-.72,6-3,7.79-6.46a14.8,14.8,0,0,1-2.2.55c-5.75,1-6.24,2.17-8.2,2.79-12.66,4-36.76,4-49.42,0-2-.62-2.46-1.82-8.2-2.79a14.8,14.8,0,0,1-2.2-.55c1.75,3.47,4.26,5.74,7.79,6.46,4.77,1,5.18,2.17,6.81,2.79C321.45,244.74,341.45,244.74,352,240.73Z" transform="translate(-280.34 -26.11)"/><path class="cls-60" d="M352,240.51c1.63-.62,2-1.82,6.82-2.79,3.54-.72,6.05-3,7.81-6.46a14.85,14.85,0,0,1-2.2.55c-5.76,1-6.25,2.17-8.22,2.79-12.68,4-36.82,4-49.5,0-2-.62-2.46-1.82-8.22-2.79a14.85,14.85,0,0,1-2.2-.55c1.75,3.47,4.27,5.74,7.81,6.46,4.78,1,5.19,2.17,6.82,2.79C321.44,244.52,341.47,244.52,352,240.51Z" transform="translate(-280.34 -26.11)"/><path class="cls-61" d="M352,240.29c1.64-.62,2-1.82,6.83-2.79,3.54-.72,6.06-3,7.82-6.46a14.89,14.89,0,0,1-2.21.55c-5.77,1-6.26,2.17-8.23,2.79-12.7,4-36.88,4-49.58,0-2-.62-2.46-1.82-8.23-2.79a14.89,14.89,0,0,1-2.21-.55c1.76,3.47,4.28,5.74,7.82,6.46,4.79,1,5.2,2.17,6.83,2.79C321.42,244.3,341.49,244.3,352,240.29Z" transform="translate(-280.34 -26.11)"/><path class="cls-62" d="M352.06,240.07c1.64-.62,2-1.82,6.84-2.79,3.55-.72,6.07-3,7.83-6.46a14.94,14.94,0,0,1-2.21.55c-5.78,1-6.27,2.17-8.24,2.79-12.73,4-36.94,4-49.66,0-2-.62-2.47-1.82-8.24-2.79a14.94,14.94,0,0,1-2.21-.55c1.76,3.47,4.29,5.74,7.83,6.46,4.8,1,5.2,2.17,6.84,2.79C321.4,244.07,341.5,244.07,352.06,240.07Z" transform="translate(-280.34 -26.11)"/><path class="cls-63" d="M352.1,239.85c1.64-.62,2.05-1.82,6.85-2.79,3.55-.72,6.08-3,7.85-6.46a15,15,0,0,1-2.21.55c-5.79,1-6.28,2.17-8.26,2.79-12.75,4-37,4-49.75,0-2-.62-2.47-1.82-8.26-2.79a15,15,0,0,1-2.21-.55c1.76,3.47,4.29,5.74,7.85,6.46,4.8,1,5.21,2.17,6.85,2.79C321.39,243.85,341.52,243.85,352.1,239.85Z" transform="translate(-280.34 -26.11)"/><path class="cls-64" d="M352.13,239.62c1.64-.62,2.06-1.82,6.87-2.79,3.56-.72,6.09-3,7.86-6.46a15,15,0,0,1-2.22.55c-5.8,1-6.29,2.17-8.27,2.79-12.77,4-37.06,4-49.83,0-2-.62-2.48-1.82-8.27-2.79a15,15,0,0,1-2.22-.55c1.77,3.47,4.3,5.74,7.86,6.46,4.81,1,5.22,2.17,6.87,2.79C321.37,243.63,341.53,243.63,352.13,239.62Z" transform="translate(-280.34 -26.11)"/><path class="cls-65" d="M352.17,239.4c1.65-.62,2.06-1.82,6.88-2.79,3.56-.72,6.1-3,7.87-6.46a15.07,15.07,0,0,1-2.22.55c-5.81,1-6.3,2.17-8.29,2.79-12.79,4-37.12,4-49.91,0-2-.62-2.48-1.82-8.29-2.79a15.07,15.07,0,0,1-2.22-.55c1.77,3.47,4.31,5.74,7.87,6.46,4.82,1,5.23,2.17,6.88,2.79C321.36,243.41,341.55,243.41,352.17,239.4Z" transform="translate(-280.34 -26.11)"/><path class="cls-27" d="M352.2,239.18c1.65-.62,2.06-1.82,6.89-2.79,3.57-.72,6.11-3,7.88-6.46a15.12,15.12,0,0,1-2.23.55c-5.81,1-6.31,2.17-8.3,2.79-12.81,4-37.18,4-50,0-2-.62-2.48-1.82-8.3-2.79a15.12,15.12,0,0,1-2.23-.55c1.77,3.47,4.31,5.73,7.88,6.46,4.83,1,5.24,2.17,6.89,2.79C321.34,243.19,341.57,243.19,352.2,239.18Z" transform="translate(-280.34 -26.11)"/><path class="cls-66" d="M372,172.74s.1-3.24,1.17-3.7c4-1.73,8.44-3.45,9.48-8.14a.84.84,0,0,0-1.06-1l-8,2.39-.67,1.81-1.24.59Z" transform="translate(-280.34 -26.11)"/><path class="cls-3" d="M371.56,167.63s7-2.85,9-4.29a6.53,6.53,0,0,0,1.95-2.34.84.84,0,0,0-1-1.16l-8,2.46-.67,1.81-1.24.59Z" transform="translate(-280.34 -26.11)"/><path class="cls-67" d="M291,173.55s-.1-3.24-1.17-3.7c-4-1.73-8.44-3.45-9.48-8.14a.84.84,0,0,1,1.06-1l8,2.39.67,1.81,1.24.59Z" transform="translate(-280.34 -26.11)"/><path class="cls-3" d="M291.4,168.44s-7-2.85-9-4.29a6.53,6.53,0,0,1-1.95-2.34.84.84,0,0,1,1-1.16l8,2.46.67,1.81,1.24.59Z" transform="translate(-280.34 -26.11)"/><path class="cls-27" d="M317.45,245.66c-8.28-11.2-14.06-27.68-17.77-41.37a241.58,241.58,0,0,1-5.36-24.67c1.78,16.59,3.93,30.46,7.59,41.25C304.08,227.26,312.91,241.79,317.45,245.66Z" transform="translate(-280.34 -26.11)"/><path class="cls-68" d="M317.45,245.66c-8.28-11.2-14.06-27.68-17.77-41.37a241.58,241.58,0,0,1-5.36-24.67c1.81,16.56,4,30.43,7.71,41.24C304.16,227.12,312.85,241.69,317.45,245.66Z" transform="translate(-280.34 -26.11)"/><path class="cls-69" d="M317.45,245.66c-8.28-11.2-14.06-27.68-17.77-41.37a241.58,241.58,0,0,1-5.36-24.67c1.83,16.54,4.12,30.4,7.83,41.22C304.24,227,312.79,241.59,317.45,245.66Z" transform="translate(-280.34 -26.11)"/><path class="cls-70" d="M317.45,245.66c-8.28-11.2-14.06-27.68-17.77-41.37a241.58,241.58,0,0,1-5.36-24.67c1.86,16.52,4.22,30.37,7.94,41.21C304.32,226.82,312.73,241.49,317.45,245.66Z" transform="translate(-280.34 -26.11)"/><path class="cls-71" d="M317.45,245.66c-8.28-11.2-14.06-27.68-17.77-41.37a241.58,241.58,0,0,1-5.36-24.67c1.88,16.5,4.32,30.35,8.06,41.19C304.4,226.68,312.68,241.39,317.45,245.66Z" transform="translate(-280.34 -26.11)"/><path class="cls-72" d="M317.45,245.66c-8.28-11.2-14.06-27.68-17.77-41.37a241.58,241.58,0,0,1-5.36-24.67c1.91,16.48,4.42,30.32,8.18,41.18C304.48,226.53,312.62,241.3,317.45,245.66Z" transform="translate(-280.34 -26.11)"/><path class="cls-73" d="M317.45,245.66c-8.28-11.2-14.06-27.68-17.77-41.37a241.58,241.58,0,0,1-5.36-24.67c1.93,16.46,4.52,30.29,8.3,41.16C304.56,226.39,312.56,241.2,317.45,245.66Z" transform="translate(-280.34 -26.11)"/><path class="cls-74" d="M317.45,245.66c-8.28-11.2-14.06-27.68-17.77-41.37a241.58,241.58,0,0,1-5.36-24.67c2,16.44,4.62,30.26,8.42,41.15C304.64,226.24,312.5,241.1,317.45,245.66Z" transform="translate(-280.34 -26.11)"/><path class="cls-75" d="M317.45,245.66c-8.28-11.2-14.06-27.68-17.77-41.37a241.58,241.58,0,0,1-5.36-24.67c2,16.42,4.72,30.23,8.54,41.13C304.72,226.1,312.44,241,317.45,245.66Z" transform="translate(-280.34 -26.11)"/><path class="cls-76" d="M317.45,245.66c-8.28-11.2-14.06-27.68-17.77-41.37a241.58,241.58,0,0,1-5.36-24.67c2,16.4,4.82,30.21,8.66,41.12C304.8,225.95,312.38,240.9,317.45,245.66Z" transform="translate(-280.34 -26.11)"/><path class="cls-77" d="M317.45,245.66c-8.28-11.2-14.06-27.68-17.77-41.37a241.58,241.58,0,0,1-5.36-24.67c2,16.37,4.92,30.18,8.78,41.1C304.88,225.8,312.32,240.8,317.45,245.66Z" transform="translate(-280.34 -26.11)"/><path class="cls-78" d="M317.45,245.66c-8.28-11.2-14.06-27.68-17.77-41.37a241.58,241.58,0,0,1-5.36-24.67c2.05,16.35,5,30.15,8.89,41.08C305,225.66,312.26,240.71,317.45,245.66Z" transform="translate(-280.34 -26.11)"/><path class="cls-79" d="M317.45,245.66c-8.28-11.2-14.06-27.68-17.77-41.37a241.58,241.58,0,0,1-5.36-24.67c2.08,16.33,5.12,30.12,9,41.07C305,225.51,312.2,240.61,317.45,245.66Z" transform="translate(-280.34 -26.11)"/><path class="cls-80" d="M317.45,245.66c-8.28-11.2-14.06-27.68-17.77-41.37a241.58,241.58,0,0,1-5.36-24.67c2.1,16.31,5.22,30.09,9.13,41.05C305.12,225.37,312.14,240.51,317.45,245.66Z" transform="translate(-280.34 -26.11)"/><path class="cls-81" d="M317.45,245.66c-8.28-11.2-14.06-27.68-17.77-41.37a241.58,241.58,0,0,1-5.36-24.67c2.13,16.29,5.32,30.07,9.25,41C305.2,225.22,312.08,240.41,317.45,245.66Z" transform="translate(-280.34 -26.11)"/><path class="cls-82" d="M317.45,245.66c-8.28-11.2-14.06-27.68-17.77-41.37a241.58,241.58,0,0,1-5.36-24.67c2.15,16.27,5.42,30,9.37,41C305.28,225.08,312,240.31,317.45,245.66Z" transform="translate(-280.34 -26.11)"/><path class="cls-83" d="M317.45,245.66c-8.28-11.2-14.06-27.68-17.77-41.37a241.58,241.58,0,0,1-5.36-24.67c2.18,16.25,5.52,30,9.49,41C305.35,224.93,312,240.22,317.45,245.66Z" transform="translate(-280.34 -26.11)"/><path class="cls-84" d="M317.45,245.66c-8.28-11.2-14.06-27.68-17.77-41.37a241.58,241.58,0,0,1-5.36-24.67,200.7,200.7,0,0,0,9.61,41C305.43,224.78,311.9,240.12,317.45,245.66Z" transform="translate(-280.34 -26.11)"/><path class="cls-85" d="M317.45,245.66c-8.28-11.2-14.06-27.68-17.77-41.37a241.58,241.58,0,0,1-5.36-24.67,200.82,200.82,0,0,0,9.73,41C305.51,224.64,311.84,240,317.45,245.66Z" transform="translate(-280.34 -26.11)"/><path class="cls-86" d="M317.45,245.66c-8.28-11.2-14.06-27.68-17.77-41.37a241.58,241.58,0,0,1-5.36-24.67,201,201,0,0,0,9.84,41C305.59,224.49,311.79,239.92,317.45,245.66Z" transform="translate(-280.34 -26.11)"/><path class="cls-87" d="M317.45,245.66c-8.28-11.2-14.06-27.68-17.77-41.37a241.58,241.58,0,0,1-5.36-24.67,201.12,201.12,0,0,0,10,40.94C305.67,224.35,311.73,239.82,317.45,245.66Z" transform="translate(-280.34 -26.11)"/><path class="cls-88" d="M317.45,245.66c-8.28-11.2-14.06-27.68-17.77-41.37a241.58,241.58,0,0,1-5.36-24.67,201.29,201.29,0,0,0,10.08,40.93C305.75,224.2,311.67,239.72,317.45,245.66Z" transform="translate(-280.34 -26.11)"/><path class="cls-27" d="M345.45,245.66c8.28-11.2,14.06-27.68,17.77-41.37a241.73,241.73,0,0,0,5.36-24.67c-1.78,16.59-3.93,30.46-7.59,41.25C358.82,227.26,350,241.79,345.45,245.66Z" transform="translate(-280.34 -26.11)"/><path class="cls-89" d="M345.45,245.66c8.28-11.2,14.06-27.68,17.77-41.37a241.73,241.73,0,0,0,5.36-24.67c-1.81,16.56-4,30.43-7.71,41.24C358.74,227.12,350.05,241.69,345.45,245.66Z" transform="translate(-280.34 -26.11)"/><path class="cls-90" d="M345.45,245.66c8.28-11.2,14.06-27.68,17.77-41.37a241.73,241.73,0,0,0,5.36-24.67c-1.83,16.54-4.12,30.4-7.83,41.22C358.66,227,350.11,241.59,345.45,245.66Z" transform="translate(-280.34 -26.11)"/><path class="cls-91" d="M345.45,245.66c8.28-11.2,14.06-27.68,17.77-41.37a241.73,241.73,0,0,0,5.36-24.67c-1.86,16.52-4.22,30.37-7.95,41.21C358.58,226.82,350.17,241.49,345.45,245.66Z" transform="translate(-280.34 -26.11)"/><path class="cls-92" d="M345.45,245.66c8.28-11.2,14.06-27.68,17.77-41.37a241.73,241.73,0,0,0,5.36-24.67c-1.88,16.5-4.32,30.35-8.06,41.19C358.51,226.68,350.23,241.39,345.45,245.66Z" transform="translate(-280.34 -26.11)"/><path class="cls-93" d="M345.45,245.66c8.28-11.2,14.06-27.68,17.77-41.37a241.73,241.73,0,0,0,5.36-24.67c-1.91,16.48-4.42,30.32-8.18,41.18C358.43,226.53,350.29,241.3,345.45,245.66Z" transform="translate(-280.34 -26.11)"/><path class="cls-94" d="M345.45,245.66c8.28-11.2,14.06-27.68,17.77-41.37a241.73,241.73,0,0,0,5.36-24.67c-1.93,16.46-4.52,30.29-8.3,41.16C358.35,226.39,350.35,241.2,345.45,245.66Z" transform="translate(-280.34 -26.11)"/><path class="cls-95" d="M345.45,245.66c8.28-11.2,14.06-27.68,17.77-41.37a241.73,241.73,0,0,0,5.36-24.67c-2,16.44-4.62,30.26-8.42,41.15C358.27,226.24,350.41,241.1,345.45,245.66Z" transform="translate(-280.34 -26.11)"/><path class="cls-96" d="M345.45,245.66c8.28-11.2,14.06-27.68,17.77-41.37a241.73,241.73,0,0,0,5.36-24.67c-2,16.42-4.72,30.23-8.54,41.13C358.19,226.1,350.47,241,345.45,245.66Z" transform="translate(-280.34 -26.11)"/><path class="cls-97" d="M345.45,245.66c8.28-11.2,14.06-27.68,17.77-41.37a241.73,241.73,0,0,0,5.36-24.67c-2,16.4-4.82,30.21-8.66,41.11C358.11,225.95,350.53,240.9,345.45,245.66Z" transform="translate(-280.34 -26.11)"/><path class="cls-98" d="M345.45,245.66c8.28-11.2,14.06-27.68,17.77-41.37a241.73,241.73,0,0,0,5.36-24.67c-2,16.37-4.92,30.18-8.78,41.1C358,225.8,350.59,240.8,345.45,245.66Z" transform="translate(-280.34 -26.11)"/><path class="cls-99" d="M345.45,245.66c8.28-11.2,14.06-27.68,17.77-41.37a241.73,241.73,0,0,0,5.36-24.67c-2.06,16.35-5,30.15-8.89,41.08C357.95,225.66,350.65,240.71,345.45,245.66Z" transform="translate(-280.34 -26.11)"/><path class="cls-100" d="M345.45,245.66c8.28-11.2,14.06-27.68,17.77-41.37a241.73,241.73,0,0,0,5.36-24.67c-2.08,16.33-5.12,30.12-9,41.07C357.87,225.51,350.71,240.61,345.45,245.66Z" transform="translate(-280.34 -26.11)"/><path class="cls-101" d="M345.45,245.66c8.28-11.2,14.06-27.68,17.77-41.37a241.73,241.73,0,0,0,5.36-24.67c-2.1,16.31-5.22,30.09-9.13,41.05C357.79,225.37,350.77,240.51,345.45,245.66Z" transform="translate(-280.34 -26.11)"/><path class="cls-102" d="M345.45,245.66c8.28-11.2,14.06-27.68,17.77-41.37a241.73,241.73,0,0,0,5.36-24.67c-2.13,16.29-5.32,30.07-9.25,41C357.71,225.22,350.82,240.41,345.45,245.66Z" transform="translate(-280.34 -26.11)"/><path class="cls-103" d="M345.45,245.66c8.28-11.2,14.06-27.68,17.77-41.37a241.73,241.73,0,0,0,5.36-24.67c-2.15,16.27-5.42,30-9.37,41C357.63,225.08,350.88,240.31,345.45,245.66Z" transform="translate(-280.34 -26.11)"/><path class="cls-104" d="M345.45,245.66c8.28-11.2,14.06-27.68,17.77-41.37a241.73,241.73,0,0,0,5.36-24.67c-2.18,16.25-5.52,30-9.49,41C357.55,224.93,350.94,240.22,345.45,245.66Z" transform="translate(-280.34 -26.11)"/><path class="cls-105" d="M345.45,245.66c8.28-11.2,14.06-27.68,17.77-41.37a241.73,241.73,0,0,0,5.36-24.67,200.69,200.69,0,0,1-9.61,41C357.47,224.78,351,240.12,345.45,245.66Z" transform="translate(-280.34 -26.11)"/><path class="cls-106" d="M345.45,245.66c8.28-11.2,14.06-27.68,17.77-41.37a241.73,241.73,0,0,0,5.36-24.67,200.81,200.81,0,0,1-9.73,41C357.39,224.64,351.06,240,345.45,245.66Z" transform="translate(-280.34 -26.11)"/><path class="cls-107" d="M345.45,245.66c8.28-11.2,14.06-27.68,17.77-41.37a241.73,241.73,0,0,0,5.36-24.67,201,201,0,0,1-9.84,41C357.31,224.49,351.12,239.92,345.45,245.66Z" transform="translate(-280.34 -26.11)"/><path class="cls-108" d="M345.45,245.66c8.28-11.2,14.06-27.68,17.77-41.37a241.73,241.73,0,0,0,5.36-24.67,201.11,201.11,0,0,1-10,40.94C357.23,224.35,351.18,239.82,345.45,245.66Z" transform="translate(-280.34 -26.11)"/><path class="cls-109" d="M345.45,245.66c8.28-11.2,14.06-27.68,17.77-41.37a241.73,241.73,0,0,0,5.36-24.67,201.28,201.28,0,0,1-10.08,40.93C357.15,224.2,351.24,239.72,345.45,245.66Z" transform="translate(-280.34 -26.11)"/><path class="cls-2" d="M362.16,78.35c-.77,8.19-1.07,16.59-1.31,24.56s-.23,16,0,24.18c.06,2.89.28,5.85.64,8.86s.88,6.28,1.53,9.47l-.3.89c-.65-3.21-1.28-7.2-1.64-10.32s-.57-6-.64-8.9c-.18-8.23-.19-16.22,0-24.2s.54-16.39,1.31-24.59Z" transform="translate(-280.34 -26.11)"/><path class="cls-3" d="M368.36,178.29,363,145.47c-17.34,4.44-45.68,4.44-63,0l-5.4,32.82C308.35,189.28,354.55,189.28,368.36,178.29Z" transform="translate(-280.34 -26.11)"/><path class="cls-110" d="M351.49,247.43a6.44,6.44,0,0,0,1.27-.82c-11,4.62-31.64,4.62-42.61,0a6.46,6.46,0,0,0,1.27.82C321.69,252.11,341.22,252.11,351.49,247.43Z" transform="translate(-280.34 -26.11)"/><path class="cls-2" d="M361.4,54.77s2.6-2.74,2.46-4.27h0c-.41-6.08-3-14.25-4.49-18.66l.53.25c1.54,4.51,4,12.43,4.38,18.38h0c.15,1.72-2.56,4.58-2.57,4.59l-.3-.29ZM303.54,31.84l-.53.25c-1.54,4.51-4,12.42-4.39,18.37h0c-.15,1.72,2.56,4.58,2.57,4.59l.3-.29S298.91,52,299,50.49h0C299.46,44.41,302,36.25,303.54,31.84Z" transform="translate(-280.34 -26.11)"/><path class="cls-2" d="M300.77,78.56c.77,8.19,1.05,16.43,1.29,24.4s.23,16,0,24.18c-.06,2.89-.28,5.85-.64,8.86s-.88,6.28-1.53,9.47l.3.89c.65-3.21,1.27-7.2,1.64-10.32s.57-6,.64-8.9c.18-8.23.19-16.22,0-24.2s-.52-16.23-1.29-24.43Z" transform="translate(-280.34 -26.11)"/><path class="cls-2" d="M368.58,179.62a9.73,9.73,0,0,1,.85,4.3,33.93,33.93,0,0,1-.37,4.89c-.16,1.2-.11,4.33,0,8.44.08,5,.18,11.36,0,17.55a124.45,124.45,0,0,1-3.1,22.26l-.41-.1a124,124,0,0,0,3.09-22.18c.22-6.19.12-12.57,0-17.53-.07-4.13-.12-7.28,0-8.51a33.56,33.56,0,0,0,.37-4.83,9.33,9.33,0,0,0-.8-4.11Z" transform="translate(-280.34 -26.11)"/><path class="cls-111" d="M373.37,225.18a1.82,1.82,0,0,0-2.13.8c-2.83,3.42-6.77,11.61-12.65,15.48a20.83,20.83,0,0,0-4.88,4.62,19.87,19.87,0,0,1,5.17-1.57A16,16,0,0,0,371.11,234C371.76,231.88,372.61,228.73,373.37,225.18Z" transform="translate(-280.34 -26.11)"/><path class="cls-112" d="M355,245.55a24,24,0,0,1,3.92-1A16,16,0,0,0,371.11,234c.59-1.89,1.34-4.66,2-7.8a1.86,1.86,0,0,0-2,.85c-2.83,3.42-7.23,11.42-13.11,15.29A17.39,17.39,0,0,0,355,245.55Z" transform="translate(-280.34 -26.11)"/><path class="cls-113" d="M355,245.55c3.2-1.19,7.35-1.88,9.91-4.09a19.42,19.42,0,0,0,5.35-8.15c1.21-3.84,2.24-4,2.94-7.15a1.86,1.86,0,0,0-2,.85c-2.83,3.42-7.23,11.42-13.11,15.29A17.39,17.39,0,0,0,355,245.55Z" transform="translate(-280.34 -26.11)"/><path class="cls-114" d="M368.32,230.74c-2.51,3.85-6.09,8.81-10.26,11.56-1.07.71-.67.52-1.54,1.39.76-.25,1.5-.49,2.17-.73C367.2,240,366.65,239.87,368.32,230.74Z" transform="translate(-280.34 -26.11)"/><path class="cls-2" d="M294.33,179.62a9.72,9.72,0,0,0-.85,4.3,33.88,33.88,0,0,0,.37,4.89c.16,1.2.11,4.33,0,8.44-.08,5-.18,11.36,0,17.55a124.49,124.49,0,0,0,3.1,22.26l.41-.1a124,124,0,0,1-3.09-22.18c-.22-6.19-.12-12.57,0-17.53.07-4.13.12-7.28,0-8.51a33.5,33.5,0,0,1-.37-4.83,9.33,9.33,0,0,1,.8-4.11Z" transform="translate(-280.34 -26.11)"/><path class="cls-111" d="M289.54,225.18a1.82,1.82,0,0,1,2.13.8c2.83,3.42,6.77,11.61,12.65,15.48a20.83,20.83,0,0,1,4.88,4.62,19.86,19.86,0,0,0-5.17-1.57A16,16,0,0,1,291.8,234C291.14,231.88,290.3,228.73,289.54,225.18Z" transform="translate(-280.34 -26.11)"/><path class="cls-115" d="M308,245.55a24,24,0,0,0-3.92-1A16,16,0,0,1,291.8,234c-.59-1.89-1.34-4.66-2-7.8a1.86,1.86,0,0,1,2,.85c2.83,3.42,7.23,11.42,13.11,15.29A17.39,17.39,0,0,1,308,245.55Z" transform="translate(-280.34 -26.11)"/><path class="cls-116" d="M308,245.55c-3.2-1.19-7.35-1.88-9.91-4.09a19.42,19.42,0,0,1-5.35-8.15c-1.21-3.84-2.24-4-2.94-7.15a1.86,1.86,0,0,1,2,.85c2.83,3.42,7.23,11.42,13.11,15.29A17.39,17.39,0,0,1,308,245.55Z" transform="translate(-280.34 -26.11)"/><path class="cls-114" d="M294.59,230.74c2.51,3.85,6.09,8.81,10.26,11.56,1.07.71.67.52,1.54,1.39-.76-.25-1.5-.49-2.17-.73C295.7,240,296.25,239.87,294.59,230.74Z" transform="translate(-280.34 -26.11)"/><path class="cls-43" d="M362.11,78.77S364,60.82,364,58c.46-17.42-65.62-17.42-65.16,0,.07,2.81,1.92,20.77,1.92,20.77C316.77,73,346.14,73,362.11,78.77Z" transform="translate(-280.34 -26.11)"/><path class="cls-44" d="M360.51,73.94c.51-5.11,1.37-13.85,1.42-15.68.43-16.29-61.39-16.29-61,0,0,1.83.91,10.57,1.42,15.68C318.12,68.86,344.79,68.86,360.51,73.94Z" transform="translate(-280.34 -26.11)"/><path class="cls-44" d="M365.47,177.45l-4.71-28.63c-16.42,4.21-43.27,4.21-59.69,0l-4.71,28.63C309.78,186.77,352.05,186.77,365.47,177.45Z" transform="translate(-280.34 -26.11)"/><path class="cls-110" d="M331.48,85.2h0A1.21,1.21,0,0,1,330.28,84V82a1.21,1.21,0,0,1,.58-1v-.82a.63.63,0,0,1,.62-.62h0a.63.63,0,0,1,.62.62V81a1.21,1.21,0,0,1,.58,1v2A1.21,1.21,0,0,1,331.48,85.2Z" transform="translate(-280.34 -26.11)"/></g></g></svg>